<?xml version="1.0" encoding="UTF-8" standalone="no"?>
<svg
   version="1.1"
   width="3300"
   height="2200"
   id="svg57"
   sodipodi:docname="youtube-m-logo.svg"
   inkscape:version="1.3.2 (091e20e, 2023-11-25)"
   xmlns:inkscape="http://www.inkscape.org/namespaces/inkscape"
   xmlns:sodipodi="http://sodipodi.sourceforge.net/DTD/sodipodi-0.dtd"
   xmlns="http://www.w3.org/2000/svg"
   xmlns:svg="http://www.w3.org/2000/svg">
  <defs
     id="defs57" />
  <sodipodi:namedview
     id="namedview57"
     pagecolor="#ffffff"
     bordercolor="#000000"
     borderopacity="0.25"
     inkscape:showpageshadow="2"
     inkscape:pageopacity="0.0"
     inkscape:pagecheckerboard="0"
     inkscape:deskcolor="#d1d1d1"
     inkscape:zoom="0.42909091"
     inkscape:cx="709.63983"
     inkscape:cy="1201.3771"
     inkscape:window-width="2560"
     inkscape:window-height="1440"
     inkscape:window-x="1680"
     inkscape:window-y="0"
     inkscape:window-maximized="0"
     inkscape:current-layer="svg57" />
  <!--glyph: "", point size: 100.0, font version: "17.1d1e1", template writer version: "65.1"-->
  <style
     id="style1">

.hierarchical-1:primary {fill:#262626;}
.SFSymbolsPreview262626 {fill:#262626;}
</style>
  <g
     id="Notes">
    <rect
       height="2200"
       id="artboard"
       style="fill:white;opacity:1"
       width="3300"
       x="0"
       y="0" />
    <line
       style="fill:none;stroke:black;opacity:1;stroke-width:0.5;"
       x1="263"
       x2="3036"
       y1="292"
       y2="292"
       id="line1" />
    <text
       style="stroke:none;fill:black;font-family:sans-serif;font-size:13;font-weight:bold;"
       transform="matrix(1 0 0 1 263 322)"
       id="text1">Weight/Scale Variations</text>
    <text
       style="stroke:none;fill:black;font-family:sans-serif;font-size:13;text-anchor:middle;"
       transform="matrix(1 0 0 1 559.711 322)"
       id="text2">Ultralight</text>
    <text
       style="stroke:none;fill:black;font-family:sans-serif;font-size:13;text-anchor:middle;"
       transform="matrix(1 0 0 1 856.422 322)"
       id="text3">Thin</text>
    <text
       style="stroke:none;fill:black;font-family:sans-serif;font-size:13;text-anchor:middle;"
       transform="matrix(1 0 0 1 1153.13 322)"
       id="text4">Light</text>
    <text
       style="stroke:none;fill:black;font-family:sans-serif;font-size:13;text-anchor:middle;"
       transform="matrix(1 0 0 1 1449.84 322)"
       id="text5">Regular</text>
    <text
       style="stroke:none;fill:black;font-family:sans-serif;font-size:13;text-anchor:middle;"
       transform="matrix(1 0 0 1 1746.56 322)"
       id="text6">Medium</text>
    <text
       style="stroke:none;fill:black;font-family:sans-serif;font-size:13;text-anchor:middle;"
       transform="matrix(1 0 0 1 2043.27 322)"
       id="text7">Semibold</text>
    <text
       style="stroke:none;fill:black;font-family:sans-serif;font-size:13;text-anchor:middle;"
       transform="matrix(1 0 0 1 2339.98 322)"
       id="text8">Bold</text>
    <text
       style="stroke:none;fill:black;font-family:sans-serif;font-size:13;text-anchor:middle;"
       transform="matrix(1 0 0 1 2636.69 322)"
       id="text9">Heavy</text>
    <text
       style="stroke:none;fill:black;font-family:sans-serif;font-size:13;text-anchor:middle;"
       transform="matrix(1 0 0 1 2933.4 322)"
       id="text10">Black</text>
    <line
       style="fill:none;stroke:black;opacity:1;stroke-width:0.5;"
       x1="263"
       x2="3036"
       y1="1903"
       y2="1903"
       id="line10" />
    <g
       transform="matrix(1 0 0 1 263 1933)"
       id="g10">
      <path
         d="M9.24805 0.830078Q10.8691 0.830078 12.2949 0.214844Q13.7207-0.400391 14.8096-1.49414Q15.8984-2.58789 16.5186-4.01367Q17.1387-5.43945 17.1387-7.05078Q17.1387-8.66211 16.5186-10.0879Q15.8984-11.5137 14.8047-12.6074Q13.7109-13.7012 12.2852-14.3164Q10.8594-14.9316 9.23828-14.9316Q7.62695-14.9316 6.20117-14.3164Q4.77539-13.7012 3.69141-12.6074Q2.60742-11.5137 1.9873-10.0879Q1.36719-8.66211 1.36719-7.05078Q1.36719-5.43945 1.9873-4.01367Q2.60742-2.58789 3.69629-1.49414Q4.78516-0.400391 6.21094 0.214844Q7.63672 0.830078 9.24805 0.830078ZM9.24805-0.654297Q7.91992-0.654297 6.7627-1.14746Q5.60547-1.64062 4.73145-2.51953Q3.85742-3.39844 3.36426-4.56055Q2.87109-5.72266 2.87109-7.05078Q2.87109-8.37891 3.35938-9.54102Q3.84766-10.7031 4.72168-11.582Q5.5957-12.4609 6.75293-12.9541Q7.91016-13.4473 9.23828-13.4473Q10.5762-13.4473 11.7334-12.9541Q12.8906-12.4609 13.7695-11.582Q14.6484-10.7031 15.1465-9.54102Q15.6445-8.37891 15.6445-7.05078Q15.6445-5.72266 15.1514-4.56055Q14.6582-3.39844 13.7842-2.51953Q12.9102-1.64062 11.748-1.14746Q10.5859-0.654297 9.24805-0.654297ZM5.6543-7.05078Q5.6543-6.72852 5.85938-6.52832Q6.06445-6.32812 6.40625-6.32812L8.51562-6.32812L8.51562-4.20898Q8.51562-3.88672 8.71094-3.67676Q8.90625-3.4668 9.23828-3.4668Q9.56055-3.4668 9.77051-3.67676Q9.98047-3.88672 9.98047-4.20898L9.98047-6.32812L12.0898-6.32812Q12.4219-6.32812 12.627-6.52832Q12.832-6.72852 12.832-7.05078Q12.832-7.38281 12.627-7.58789Q12.4219-7.79297 12.0898-7.79297L9.98047-7.79297L9.98047-9.90234Q9.98047-10.2344 9.77051-10.4443Q9.56055-10.6543 9.23828-10.6543Q8.90625-10.6543 8.71094-10.4443Q8.51562-10.2344 8.51562-9.90234L8.51562-7.79297L6.40625-7.79297Q6.06445-7.79297 5.85938-7.58789Q5.6543-7.38281 5.6543-7.05078Z"
         id="path10" />
    </g>
    <g
       transform="matrix(1 0 0 1 281.867 1933)"
       id="g11">
      <path
         d="M11.709 2.91016Q13.75 2.91016 15.5518 2.12891Q17.3535 1.34766 18.7305-0.0292969Q20.1074-1.40625 20.8887-3.20801Q21.6699-5.00977 21.6699-7.05078Q21.6699-9.0918 20.8887-10.8936Q20.1074-12.6953 18.7305-14.0723Q17.3535-15.4492 15.5469-16.2305Q13.7402-17.0117 11.6992-17.0117Q9.6582-17.0117 7.85645-16.2305Q6.05469-15.4492 4.68262-14.0723Q3.31055-12.6953 2.5293-10.8936Q1.74805-9.0918 1.74805-7.05078Q1.74805-5.00977 2.5293-3.20801Q3.31055-1.40625 4.6875-0.0292969Q6.06445 1.34766 7.86621 2.12891Q9.66797 2.91016 11.709 2.91016ZM11.709 1.25Q9.98047 1.25 8.47656 0.605469Q6.97266-0.0390625 5.83496-1.17676Q4.69727-2.31445 4.05762-3.81836Q3.41797-5.32227 3.41797-7.05078Q3.41797-8.7793 4.05762-10.2832Q4.69727-11.7871 5.83008-12.9297Q6.96289-14.0723 8.4668-14.7119Q9.9707-15.3516 11.6992-15.3516Q13.4277-15.3516 14.9316-14.7119Q16.4355-14.0723 17.5781-12.9297Q18.7207-11.7871 19.3652-10.2832Q20.0098-8.7793 20.0098-7.05078Q20.0098-5.32227 19.3701-3.81836Q18.7305-2.31445 17.5928-1.17676Q16.4551-0.0390625 14.9463 0.605469Q13.4375 1.25 11.709 1.25ZM7.17773-7.05078Q7.17773-6.69922 7.41211-6.47461Q7.64648-6.25 8.01758-6.25L10.8887-6.25L10.8887-3.36914Q10.8887-2.99805 11.1133-2.76855Q11.3379-2.53906 11.6895-2.53906Q12.0605-2.53906 12.29-2.76855Q12.5195-2.99805 12.5195-3.36914L12.5195-6.25L15.4004-6.25Q15.7715-6.25 16.001-6.47461Q16.2305-6.69922 16.2305-7.05078Q16.2305-7.42188 16.001-7.65137Q15.7715-7.88086 15.4004-7.88086L12.5195-7.88086L12.5195-10.752Q12.5195-11.1328 12.29-11.3623Q12.0605-11.5918 11.6895-11.5918Q11.3379-11.5918 11.1133-11.3574Q10.8887-11.123 10.8887-10.752L10.8887-7.88086L8.01758-7.88086Q7.63672-7.88086 7.40723-7.65137Q7.17773-7.42188 7.17773-7.05078Z"
         id="path11" />
    </g>
    <g
       transform="matrix(1 0 0 1 305.646 1933)"
       id="g12">
      <path
         d="M14.9707 5.66406Q17.0605 5.66406 18.96 5.01465Q20.8594 4.36523 22.4512 3.19336Q24.043 2.02148 25.2197 0.429688Q26.3965-1.16211 27.0459-3.06641Q27.6953-4.9707 27.6953-7.05078Q27.6953-9.14062 27.0459-11.04Q26.3965-12.9395 25.2197-14.5312Q24.043-16.123 22.4512-17.2998Q20.8594-18.4766 18.9551-19.126Q17.0508-19.7754 14.9609-19.7754Q12.8711-19.7754 10.9717-19.126Q9.07227-18.4766 7.48535-17.2998Q5.89844-16.123 4.72168-14.5312Q3.54492-12.9395 2.90039-11.04Q2.25586-9.14062 2.25586-7.05078Q2.25586-4.9707 2.90527-3.06641Q3.55469-1.16211 4.72656 0.429688Q5.89844 2.02148 7.49023 3.19336Q9.08203 4.36523 10.9814 5.01465Q12.8809 5.66406 14.9707 5.66406ZM14.9707 3.84766Q13.1641 3.84766 11.5283 3.2959Q9.89258 2.74414 8.53516 1.74805Q7.17773 0.751953 6.17676-0.610352Q5.17578-1.97266 4.62891-3.6084Q4.08203-5.24414 4.08203-7.05078Q4.08203-8.86719 4.62891-10.5029Q5.17578-12.1387 6.17188-13.501Q7.16797-14.8633 8.52539-15.8594Q9.88281-16.8555 11.5186-17.4023Q13.1543-17.9492 14.9609-17.9492Q16.7773-17.9492 18.4131-17.4023Q20.0488-16.8555 21.4111-15.8594Q22.7734-14.8633 23.7695-13.501Q24.7656-12.1387 25.3174-10.5029Q25.8691-8.86719 25.8691-7.05078Q25.8789-5.24414 25.332-3.6084Q24.7852-1.97266 23.7842-0.610352Q22.7832 0.751953 21.4209 1.74805Q20.0586 2.74414 18.4229 3.2959Q16.7871 3.84766 14.9707 3.84766ZM9.19922-7.05078Q9.19922-6.66992 9.45801-6.4209Q9.7168-6.17188 10.1172-6.17188L14.0625-6.17188L14.0625-2.2168Q14.0625-1.81641 14.3115-1.55762Q14.5605-1.29883 14.9512-1.29883Q15.3516-1.29883 15.6104-1.55273Q15.8691-1.80664 15.8691-2.2168L15.8691-6.17188L19.8242-6.17188Q20.2246-6.17188 20.4785-6.4209Q20.7324-6.66992 20.7324-7.05078Q20.7324-7.46094 20.4785-7.71484Q20.2246-7.96875 19.8242-7.96875L15.8691-7.96875L15.8691-11.9141Q15.8691-12.3242 15.6104-12.583Q15.3516-12.8418 14.9512-12.8418Q14.5605-12.8418 14.3115-12.583Q14.0625-12.3242 14.0625-11.9141L14.0625-7.96875L10.1172-7.96875Q9.70703-7.96875 9.45312-7.71484Q9.19922-7.46094 9.19922-7.05078Z"
         id="path12" />
    </g>
    <text
       style="stroke:none;fill:black;font-family:sans-serif;font-size:13;font-weight:bold;"
       transform="matrix(1 0 0 1 263 1953)"
       id="text12">Design Variations</text>
    <text
       style="stroke:none;fill:black;font-family:sans-serif;font-size:13;"
       transform="matrix(1 0 0 1 263 1971)"
       id="text13">Symbols are supported in up to nine weights and three scales.</text>
    <text
       style="stroke:none;fill:black;font-family:sans-serif;font-size:13;"
       transform="matrix(1 0 0 1 263 1989)"
       id="text14">For optimal layout with text and other symbols, vertically align</text>
    <text
       style="stroke:none;fill:black;font-family:sans-serif;font-size:13;"
       transform="matrix(1 0 0 1 263 2007)"
       id="text15">symbols with the adjacent text.</text>
    <line
       style="fill:none;stroke:#00AEEF;stroke-width:0.5;opacity:1.0;"
       x1="776"
       x2="776"
       y1="1919"
       y2="1933"
       id="line15" />
    <g
       transform="matrix(1 0 0 1 776 1933)"
       id="g15">
      <path
         d="M3.31055 0.15625Q3.70117 0.15625 3.91602-0.00976562Q4.13086-0.175781 4.26758-0.585938L5.52734-4.0332L11.2891-4.0332L12.5488-0.585938Q12.6855-0.175781 12.9004-0.00976562Q13.1152 0.15625 13.4961 0.15625Q13.8867 0.15625 14.1162-0.0585938Q14.3457-0.273438 14.3457-0.644531Q14.3457-0.869141 14.2383-1.17188L9.6582-13.3691Q9.48242-13.8184 9.17969-14.043Q8.87695-14.2676 8.4082-14.2676Q7.5-14.2676 7.17773-13.3789L2.59766-1.16211Q2.49023-0.859375 2.49023-0.634766Q2.49023-0.263672 2.70996-0.0537109Q2.92969 0.15625 3.31055 0.15625ZM6.00586-5.51758L8.37891-12.0898L8.42773-12.0898L10.8008-5.51758Z"
         id="path15" />
    </g>
    <line
       style="fill:none;stroke:#00AEEF;stroke-width:0.5;opacity:1.0;"
       x1="793.197"
       x2="793.197"
       y1="1919"
       y2="1933"
       id="line16" />
    <text
       style="stroke:none;fill:black;font-family:sans-serif;font-size:13;font-weight:bold;"
       transform="matrix(1 0 0 1 776 1953)"
       id="text16">Margins</text>
    <text
       style="stroke:none;fill:black;font-family:sans-serif;font-size:13;"
       transform="matrix(1 0 0 1 776 1971)"
       id="text17">Leading and trailing margins on the left and right side of each symbol</text>
    <text
       style="stroke:none;fill:black;font-family:sans-serif;font-size:13;"
       transform="matrix(1 0 0 1 776 1989)"
       id="text18">can be adjusted by modifying the x-location of the margin guidelines.</text>
    <text
       style="stroke:none;fill:black;font-family:sans-serif;font-size:13;"
       transform="matrix(1 0 0 1 776 2007)"
       id="text19">Modifications are automatically applied proportionally to all</text>
    <text
       style="stroke:none;fill:black;font-family:sans-serif;font-size:13;"
       transform="matrix(1 0 0 1 776 2025)"
       id="text20">scales and weights.</text>
    <g
       transform="matrix(1 0 0 1 1289 1933)"
       id="g20">
      <path
         d="M2.8418 1.86523L4.54102 3.57422Q5.18555 4.22852 5.90332 4.17969Q6.62109 4.13086 7.31445 3.35938L18.0078-8.42773L17.041-9.4043L6.42578 2.27539Q6.16211 2.57812 5.89355 2.61719Q5.625 2.65625 5.27344 2.30469L4.10156 1.14258Q3.75 0.791016 3.79395 0.522461Q3.83789 0.253906 4.14062-0.0195312L15.6152-10.8203L14.6387-11.7871L3.04688-0.898438Q2.30469-0.214844 2.25098 0.498047Q2.19727 1.21094 2.8418 1.86523ZM9.25781-16.3281Q8.94531-16.0254 8.90625-15.6348Q8.86719-15.2441 9.04297-14.9512Q9.21875-14.6777 9.55566-14.541Q9.89258-14.4043 10.3809-14.5215Q11.4746-14.7754 12.5977-14.7314Q13.7207-14.6875 14.7949-13.9844L14.209-12.5293Q13.9551-11.9043 14.0674-11.4404Q14.1797-10.9766 14.5801-10.5664L16.875-8.25195Q17.2363-7.88086 17.5781-7.82227Q17.9199-7.76367 18.3398-7.8418L19.4043-8.03711L20.0684-7.36328L20.0293-6.80664Q20-6.43555 20.1221-6.12305Q20.2441-5.81055 20.6055-5.44922L21.3672-4.70703Q21.7285-4.3457 22.1533-4.33105Q22.5781-4.31641 22.9297-4.66797L25.8398-7.58789Q26.1914-7.93945 26.1816-8.35449Q26.1719-8.76953 25.8105-9.13086L25.0391-9.89258Q24.6875-10.2539 24.3799-10.3857Q24.0723-10.5176 23.7109-10.4883L23.1348-10.4395L22.4902-11.0742L22.7344-12.1973Q22.832-12.6172 22.6953-12.9834Q22.5586-13.3496 22.1191-13.7891L19.9219-15.9766Q18.6719-17.2168 17.2607-17.8369Q15.8496-18.457 14.4189-18.4814Q12.9883-18.5059 11.665-17.959Q10.3418-17.4121 9.25781-16.3281ZM10.752-15.957Q11.6602-16.6211 12.7002-16.9043Q13.7402-17.1875 14.8047-17.085Q15.8691-16.9824 16.8701-16.5137Q17.8711-16.0449 18.7012-15.2051L21.1328-12.793Q21.3086-12.6172 21.3525-12.4512Q21.3965-12.2852 21.3379-12.0312L21.0156-10.5469L22.5195-9.0625L23.5059-9.12109Q23.6914-9.13086 23.7891-9.09668Q23.8867-9.0625 24.0332-8.91602L24.6094-8.33984L22.168-5.89844L21.5918-6.47461Q21.4453-6.62109 21.4062-6.71875Q21.3672-6.81641 21.377-7.01172L21.4453-7.98828L19.9512-9.47266L18.4277-9.21875Q18.1836-9.16992 18.042-9.2041Q17.9004-9.23828 17.7148-9.41406L15.7129-11.416Q15.5176-11.5918 15.4932-11.7529Q15.4688-11.9141 15.5859-12.1875L16.4648-14.2773Q15.293-15.3711 13.8281-15.791Q12.3633-16.2109 10.8398-15.7617Q10.7227-15.7324 10.6885-15.8057Q10.6543-15.8789 10.752-15.957Z"
         id="path20" />
    </g>
    <text
       style="stroke:none;fill:black;font-family:sans-serif;font-size:13;font-weight:bold;"
       transform="matrix(1 0 0 1 1289 1953)"
       id="text21">Exporting</text>
    <text
       style="stroke:none;fill:black;font-family:sans-serif;font-size:13;"
       transform="matrix(1 0 0 1 1289 1971)"
       id="text22">Symbols should be outlined when exporting to ensure the</text>
    <text
       style="stroke:none;fill:black;font-family:sans-serif;font-size:13;"
       transform="matrix(1 0 0 1 1289 1989)"
       id="text23">design is preserved when submitting to Xcode.</text>
    <text
       id="template-version"
       style="stroke:none;fill:black;font-family:sans-serif;font-size:13;text-anchor:end;"
       transform="matrix(1 0 0 1 3036 1933)">Template v.3.0</text>
    <text
       style="stroke:none;fill:black;font-family:sans-serif;font-size:13;text-anchor:end;"
       transform="matrix(1 0 0 1 3036 1951)"
       id="text24">Requires Xcode 13 or greater</text>
    <text
       id="descriptive-name"
       style="stroke:none;fill:black;font-family:sans-serif;font-size:13;text-anchor:end;"
       transform="matrix(1 0 0 1 3036 1969)">Symbol moniker: youtube-m-logo</text>
    <text
       style="stroke:none;fill:black;font-family:sans-serif;font-size:13;text-anchor:end;"
       transform="matrix(1 0 0 1 3036 1987)"
       id="text25">Typeset at 100 points</text>
    <text
       style="stroke:none;fill:black;font-family:sans-serif;font-size:13;"
       transform="matrix(1 0 0 1 263 726)"
       id="text26">Small</text>
    <text
       style="stroke:none;fill:black;font-family:sans-serif;font-size:13;"
       transform="matrix(1 0 0 1 263 1156)"
       id="text27">Medium</text>
    <text
       style="stroke:none;fill:black;font-family:sans-serif;font-size:13;"
       transform="matrix(1 0 0 1 263 1586)"
       id="text28">Large</text>
  </g>
  <g
     id="Guides">
    <g
       id="H-reference"
       style="fill:#27AAE1;stroke:none;"
       transform="matrix(1 0 0 1 339 696)">
      <path
         d="M0.976562 0L3.66211 0L29.3457-67.1387L30.0293-67.1387L30.0293-70.459L28.125-70.459ZM11.6699-24.4629L46.9727-24.4629L46.2402-26.709L12.4512-26.709ZM55.127 0L57.7637 0L30.6152-70.459L29.4434-70.459L29.4434-67.1387Z"
         id="path28" />
    </g>
    <line
       id="Baseline-S"
       style="fill:none;stroke:#27AAE1;opacity:1;stroke-width:0.5;"
       x1="263"
       x2="3036"
       y1="696"
       y2="696" />
    <line
       id="Capline-S"
       style="fill:none;stroke:#27AAE1;opacity:1;stroke-width:0.5;"
       x1="263"
       x2="3036"
       y1="625.541"
       y2="625.541" />
    <g
       id="g29"
       style="fill:#27AAE1;stroke:none;"
       transform="matrix(1 0 0 1 339 1126)">
      <path
         d="M0.976562 0L3.66211 0L29.3457-67.1387L30.0293-67.1387L30.0293-70.459L28.125-70.459ZM11.6699-24.4629L46.9727-24.4629L46.2402-26.709L12.4512-26.709ZM55.127 0L57.7637 0L30.6152-70.459L29.4434-70.459L29.4434-67.1387Z"
         id="path29" />
    </g>
    <line
       id="Baseline-M"
       style="fill:none;stroke:#27AAE1;opacity:1;stroke-width:0.5;"
       x1="263"
       x2="3036"
       y1="1126"
       y2="1126" />
    <line
       id="Capline-M"
       style="fill:none;stroke:#27AAE1;opacity:1;stroke-width:0.5;"
       x1="263"
       x2="3036"
       y1="1055.54"
       y2="1055.54" />
    <g
       id="g30"
       style="fill:#27AAE1;stroke:none;"
       transform="matrix(1 0 0 1 339 1556)">
      <path
         d="M0.976562 0L3.66211 0L29.3457-67.1387L30.0293-67.1387L30.0293-70.459L28.125-70.459ZM11.6699-24.4629L46.9727-24.4629L46.2402-26.709L12.4512-26.709ZM55.127 0L57.7637 0L30.6152-70.459L29.4434-70.459L29.4434-67.1387Z"
         id="path30" />
    </g>
    <line
       id="Baseline-L"
       style="fill:none;stroke:#27AAE1;opacity:1;stroke-width:0.5;"
       x1="263"
       x2="3036"
       y1="1556"
       y2="1556" />
    <line
       id="Capline-L"
       style="fill:none;stroke:#27AAE1;opacity:1;stroke-width:0.5;"
       x1="263"
       x2="3036"
       y1="1485.54"
       y2="1485.54" />
    <line
       id="left-margin-Ultralight-S"
       style="fill:none;stroke:#00AEEF;stroke-width:0.5;opacity:1.0;"
       x1="515.351"
       x2="515.351"
       y1="600.784"
       y2="720.121" />
    <line
       id="right-margin-Ultralight-S"
       style="fill:none;stroke:#00AEEF;stroke-width:0.5;opacity:1.0;"
       x1="604.071"
       x2="604.071"
       y1="600.784"
       y2="720.121" />
    <line
       id="left-margin-Regular-S"
       style="fill:none;stroke:#00AEEF;stroke-width:0.5;opacity:1.0;"
       x1="1401.75"
       x2="1401.75"
       y1="600.784"
       y2="720.121" />
    <line
       id="right-margin-Regular-S"
       style="fill:none;stroke:#00AEEF;stroke-width:0.5;opacity:1.0;"
       x1="1497.94"
       x2="1497.94"
       y1="600.784"
       y2="720.121" />
    <line
       id="left-margin-Black-S"
       style="fill:none;stroke:#00AEEF;stroke-width:0.5;opacity:1.0;"
       x1="2883.2"
       x2="2883.2"
       y1="600.784"
       y2="720.121" />
    <line
       id="right-margin-Black-S"
       style="fill:none;stroke:#00AEEF;stroke-width:0.5;opacity:1.0;"
       x1="2983.6"
       x2="2983.6"
       y1="600.784"
       y2="720.121" />
  </g>
  <g
     id="Symbols">
    <g
       id="Black-L"
       transform="matrix(1,0,0,1,2853.3999999999996,1440.77)">
      <path
         d="M79.9815625 160C95.805 160.003125 111.27390625000001 155.3146875 124.43234375 146.52640625 137.59078125 137.738125 147.84734375 125.24531250000001 153.90546875 110.62765625 159.9625 96.00953125000001 161.55 79.92359375000001 158.465625 64.40421875 155.38015625 48.884218749999995 147.7625 34.628125 136.5753125 23.4378125 125.3875 12.247859375 111.13312499999999 4.626828124999999 95.61406249999999 1.538565625 80.09515625-1.5497578125 64.00875 0.0334446875 49.389531250000005 6.087953124999999 34.77015625 12.14225 22.2746875 22.396093750000002 13.483234374999999 35.55234375 4.69228125 48.708749999999995 0.0000025767031250000005 64.17703125 0.0000025767031250000005 80-0.0026640937500000002 90.505 2.06453125 100.90765625 6.082671875 110.61328125 10.101359375000001 120.319375 15.99203125 129.13859374999998 23.419218750000002 136.5675 30.84640625 143.99625 39.6646875 149.88953125 49.3696875 153.91046875 59.07484375 157.93125 69.47703125000001 160 79.9815625 160Z"
         class="hierarchical-1:primary "
         id="path31" />
      <path
         d="M79.98046875 37.88203125C88.31703125000001 37.87078125 96.46953124999999 40.33328125 103.4065625 44.9578125 110.34375 49.58171874999999 115.7528125 56.15984375 118.94953125 63.85906249999999 122.146875 71.55890624999999 122.98796875000001 80.03359375000001 121.36671874999999 88.21109375 119.7459375 96.38875 115.73515625 103.90187499999999 109.84234375 109.799375 103.95015624999999 115.69703125000001 96.44078125 119.7140625 88.26421875 121.34234375 80.08812499999999 122.97062499999998 71.6125 122.13703125 63.91 118.9465625 56.208125 115.75625000000001 49.62515625 110.35249999999999 44.995312500000004 103.4196875 40.36484375 96.486875 37.895625 88.33640625 37.89875 79.999375 37.913125 68.83984375 42.350468750000005 58.14125 50.23796875000001 50.246874999999996 58.125468749999996 42.35234375 68.82046875 37.9059375 79.98046875 37.88203125ZM79.98046875 31.4371875C70.37140625 31.4371875 60.9778125 34.286875 52.988437499999996 39.62609375 44.99906250000001 44.9646875 38.77234375 52.55296875 35.095468749999995 61.430781249999995 31.41921875 70.30921875 30.45828125 80.07781250000001 32.33453125 89.50234375000001 34.21015625 98.92640625 38.8390625 107.58234375 45.63484375 114.37593749999999 52.43109375 121.16953125 61.088750000000005 125.79468750000001 70.51375 127.66718750000001 79.93890625 129.53968749999999 89.70734374999999 128.57484375 98.58375000000001 124.89546875 107.46046874999999 121.21546875 115.04671875 114.98609375 120.38265625 106.9946875 125.718125 99.003125 128.56453125 89.60843750000001 128.56078125 79.999375 128.56078125 73.62078125 127.30437500000001 67.304375 124.86265625 61.41109375 122.42109375 55.51828125 118.84234375 50.164218749999996 114.33093749999999 45.65421875 109.81953125000001 41.144375000000004 104.46375 37.5678125 98.56984374999999 35.128437500000004 92.6759375 32.68890625 86.3590625 31.435 79.98046875 31.4371875Z"
         class="hierarchical-1:primary "
         id="path32"
         style="fill:#ffffff;fill-opacity:0.94023907" />
      <path
         d="M64.53875 103.643125L105.45203125 80.00093749999999 64.53875 56.37703125V103.643125Z"
         class="hierarchical-1:primary "
         id="path33"
         style="fill:#ffffff;fill-opacity:1" />
    </g>
    <g
       id="Regular-L"
       transform="matrix(1,0,0,1,1369.845,1440.77)"
       inkscape:label="Regular-L">
      <path
         d="M79.9815625 160C95.805 160.003125 111.27390625000001 155.3146875 124.43234375 146.52640625 137.59078125 137.738125 147.84734375 125.24531250000001 153.90546875 110.62765625 159.9625 96.00953125000001 161.55 79.92359375000001 158.465625 64.40421875 155.38015625 48.884218749999995 147.7625 34.628125 136.5753125 23.4378125 125.3875 12.247859375 111.13312499999999 4.626828124999999 95.61406249999999 1.538565625 80.09515625-1.5497578125 64.00875 0.0334446875 49.389531250000005 6.087953124999999 34.77015625 12.14225 22.2746875 22.396093750000002 13.483234374999999 35.55234375 4.69228125 48.708749999999995 0.0000025767031250000005 64.17703125 0.0000025767031250000005 80-0.0026640937500000002 90.505 2.06453125 100.90765625 6.082671875 110.61328125 10.101359375000001 120.319375 15.99203125 129.13859374999998 23.419218750000002 136.5675 30.84640625 143.99625 39.6646875 149.88953125 49.3696875 153.91046875 59.07484375 157.93125 69.47703125000001 160 79.9815625 160Z"
         class="hierarchical-1:primary "
         id="path34" />
      <path
         d="M79.98046875 37.88203125C88.31703125000001 37.87078125 96.46953124999999 40.33328125 103.4065625 44.9578125 110.34375 49.58171874999999 115.7528125 56.15984375 118.94953125 63.85906249999999 122.146875 71.55890624999999 122.98796875000001 80.03359375000001 121.36671874999999 88.21109375 119.7459375 96.38875 115.73515625 103.90187499999999 109.84234375 109.799375 103.95015624999999 115.69703125000001 96.44078125 119.7140625 88.26421875 121.34234375 80.08812499999999 122.97062499999998 71.6125 122.13703125 63.91 118.9465625 56.208125 115.75625000000001 49.62515625 110.35249999999999 44.995312500000004 103.4196875 40.36484375 96.486875 37.895625 88.33640625 37.89875 79.999375 37.913125 68.83984375 42.350468750000005 58.14125 50.23796875000001 50.246874999999996 58.125468749999996 42.35234375 68.82046875 37.9059375 79.98046875 37.88203125ZM79.98046875 31.4371875C70.37140625 31.4371875 60.9778125 34.286875 52.988437499999996 39.62609375 44.99906250000001 44.9646875 38.77234375 52.55296875 35.095468749999995 61.430781249999995 31.41921875 70.30921875 30.45828125 80.07781250000001 32.33453125 89.50234375000001 34.21015625 98.92640625 38.8390625 107.58234375 45.63484375 114.37593749999999 52.43109375 121.16953125 61.088750000000005 125.79468750000001 70.51375 127.66718750000001 79.93890625 129.53968749999999 89.70734374999999 128.57484375 98.58375000000001 124.89546875 107.46046874999999 121.21546875 115.04671875 114.98609375 120.38265625 106.9946875 125.718125 99.003125 128.56453125 89.60843750000001 128.56078125 79.999375 128.56078125 73.62078125 127.30437500000001 67.304375 124.86265625 61.41109375 122.42109375 55.51828125 118.84234375 50.164218749999996 114.33093749999999 45.65421875 109.81953125000001 41.144375000000004 104.46375 37.5678125 98.56984374999999 35.128437500000004 92.6759375 32.68890625 86.3590625 31.435 79.98046875 31.4371875Z"
         class="hierarchical-1:primary "
         id="path35"
         style="fill:#ffffff;fill-opacity:1" />
      <path
         d="M64.53875 103.643125L105.45203125 80.00093749999999 64.53875 56.37703125V103.643125Z"
         class="hierarchical-1:primary "
         id="path36"
         style="fill:#ffffff;fill-opacity:1" />
    </g>
    <g
       id="Ultralight-L"
       transform="matrix(1,0,0,1,479.711,1440.77)">
      <path
         d="M79.9815625 160C95.805 160.003125 111.27390625000001 155.3146875 124.43234375 146.52640625 137.59078125 137.738125 147.84734375 125.24531250000001 153.90546875 110.62765625 159.9625 96.00953125000001 161.55 79.92359375000001 158.465625 64.40421875 155.38015625 48.884218749999995 147.7625 34.628125 136.5753125 23.4378125 125.3875 12.247859375 111.13312499999999 4.626828124999999 95.61406249999999 1.538565625 80.09515625-1.5497578125 64.00875 0.0334446875 49.389531250000005 6.087953124999999 34.77015625 12.14225 22.2746875 22.396093750000002 13.483234374999999 35.55234375 4.69228125 48.708749999999995 0.0000025767031250000005 64.17703125 0.0000025767031250000005 80-0.0026640937500000002 90.505 2.06453125 100.90765625 6.082671875 110.61328125 10.101359375000001 120.319375 15.99203125 129.13859374999998 23.419218750000002 136.5675 30.84640625 143.99625 39.6646875 149.88953125 49.3696875 153.91046875 59.07484375 157.93125 69.47703125000001 160 79.9815625 160Z"
         class="hierarchical-1:primary "
         id="path37" />
      <path
         d="M79.98046875 37.88203125C88.31703125000001 37.87078125 96.46953124999999 40.33328125 103.4065625 44.9578125 110.34375 49.58171874999999 115.7528125 56.15984375 118.94953125 63.85906249999999 122.146875 71.55890624999999 122.98796875000001 80.03359375000001 121.36671874999999 88.21109375 119.7459375 96.38875 115.73515625 103.90187499999999 109.84234375 109.799375 103.95015624999999 115.69703125000001 96.44078125 119.7140625 88.26421875 121.34234375 80.08812499999999 122.97062499999998 71.6125 122.13703125 63.91 118.9465625 56.208125 115.75625000000001 49.62515625 110.35249999999999 44.995312500000004 103.4196875 40.36484375 96.486875 37.895625 88.33640625 37.89875 79.999375 37.913125 68.83984375 42.350468750000005 58.14125 50.23796875000001 50.246874999999996 58.125468749999996 42.35234375 68.82046875 37.9059375 79.98046875 37.88203125ZM79.98046875 31.4371875C70.37140625 31.4371875 60.9778125 34.286875 52.988437499999996 39.62609375 44.99906250000001 44.9646875 38.77234375 52.55296875 35.095468749999995 61.430781249999995 31.41921875 70.30921875 30.45828125 80.07781250000001 32.33453125 89.50234375000001 34.21015625 98.92640625 38.8390625 107.58234375 45.63484375 114.37593749999999 52.43109375 121.16953125 61.088750000000005 125.79468750000001 70.51375 127.66718750000001 79.93890625 129.53968749999999 89.70734374999999 128.57484375 98.58375000000001 124.89546875 107.46046874999999 121.21546875 115.04671875 114.98609375 120.38265625 106.9946875 125.718125 99.003125 128.56453125 89.60843750000001 128.56078125 79.999375 128.56078125 73.62078125 127.30437500000001 67.304375 124.86265625 61.41109375 122.42109375 55.51828125 118.84234375 50.164218749999996 114.33093749999999 45.65421875 109.81953125000001 41.144375000000004 104.46375 37.5678125 98.56984374999999 35.128437500000004 92.6759375 32.68890625 86.3590625 31.435 79.98046875 31.4371875Z"
         class="hierarchical-1:primary "
         id="path38"
         style="fill:#ffffff;fill-opacity:1" />
      <path
         d="M64.53875 103.643125L105.45203125 80.00093749999999 64.53875 56.37703125V103.643125Z"
         class="hierarchical-1:primary "
         id="path39"
         style="fill:#ffffff;fill-opacity:1" />
    </g>
    <g
       id="Black-M"
       transform="matrix(1,0,0,1,2869.3999999999996,1026.77)">
      <path
         d="M63.98525 128C76.644 128.0025 89.019125 124.25175 99.545875 117.221125 110.072625 110.1905 118.277875 100.19625 123.124375 88.502125 127.97 76.807625 129.24 63.938875 126.7725 51.523375 124.304125 39.107375 118.21 27.7025 109.26025 18.75025 100.31 9.7982875 88.9065 3.7014625 76.49125 1.2308525 64.076125-1.23980625 51.207 0.02675575 39.511625 4.8703625 27.816125 9.7138 17.81975 17.916875 10.7865875 28.441875 3.753825 38.967 0.0000020613625 51.341625 0.0000020613625 64-0.002131275 72.404 1.651625 80.726125 4.8661375 88.490625 8.0810875 96.2555 12.793625 103.310875 18.735375 109.254 24.677125 115.197 31.73175 119.911625 39.49575 123.128375 47.259875 126.345 55.581625 128 63.98525 128Z"
         class="hierarchical-1:primary "
         id="path40" />
      <path
         d="M63.984375 30.305625C70.653625 30.296625 77.175625 32.266625 82.72525 35.96625 88.275 39.665375 92.60225 44.927875 95.159625 51.08725 97.7175 57.247125 98.390375 64.026875 97.093375 70.568875 95.79675 77.111 92.588125 83.1215 87.873875 87.8395 83.160125 92.557625 77.152625 95.77125 70.611375 97.073875 64.0705 98.3765 57.29 97.709625 51.128 95.15725 44.9665 92.605 39.700125 88.282 35.99625 82.73575 32.291875 77.1895 30.3165 70.669125 30.319 63.9995 30.3305 55.071875 33.880375 46.513 40.190375 40.1975 46.500375 33.881875 55.056375 30.32475 63.984375 30.305625ZM63.984375 25.14975C56.297125 25.14975 48.78225 27.4295 42.39075 31.700875 35.99925 35.97175 31.017875 42.042375 28.076375 49.144625 25.135375 56.247375 24.366625 64.06225 25.867625 71.601875 27.368125 79.141125 31.07125 86.065875 36.507875 91.50075 41.944875 96.935625 48.871 100.63575 56.411 102.13375 63.951125 103.63175 71.765875 102.859875 78.867 99.916375 85.968375 96.972375 92.037375 91.988875 96.306125 85.59575 100.5745 79.2025 102.851625 71.68675 102.848625 63.9995 102.848625 58.896625 101.8435 53.8435 99.890125 49.128875 97.936875 44.414625 95.073875 40.131375 91.46475 36.523375 87.855625 32.9155 83.571 30.05425 78.855875 28.10275 74.14075 26.151125 69.08725 25.148 63.984375 25.14975Z"
         class="hierarchical-1:primary "
         id="path41"
         style="fill:#ffffff;fill-opacity:1" />
      <path
         d="M51.631 82.9145L84.361625 64.00075 51.631 45.101625V82.9145Z"
         class="hierarchical-1:primary "
         id="path42"
         style="fill:#ffffff;fill-opacity:1" />
    </g>
    <g
       id="Regular-M"
       transform="matrix(1,0,0,1,1385.845,1026.77)">
      <path
         d="M63.98525 128C76.644 128.0025 89.019125 124.25175 99.545875 117.221125 110.072625 110.1905 118.277875 100.19625 123.124375 88.502125 127.97 76.807625 129.24 63.938875 126.7725 51.523375 124.304125 39.107375 118.21 27.7025 109.26025 18.75025 100.31 9.7982875 88.9065 3.7014625 76.49125 1.2308525 64.076125-1.23980625 51.207 0.02675575 39.511625 4.8703625 27.816125 9.7138 17.81975 17.916875 10.7865875 28.441875 3.753825 38.967 0.0000020613625 51.341625 0.0000020613625 64-0.002131275 72.404 1.651625 80.726125 4.8661375 88.490625 8.0810875 96.2555 12.793625 103.310875 18.735375 109.254 24.677125 115.197 31.73175 119.911625 39.49575 123.128375 47.259875 126.345 55.581625 128 63.98525 128Z"
         class="hierarchical-1:primary "
         id="path43" />
      <path
         d="M63.984375 30.305625C70.653625 30.296625 77.175625 32.266625 82.72525 35.96625 88.275 39.665375 92.60225 44.927875 95.159625 51.08725 97.7175 57.247125 98.390375 64.026875 97.093375 70.568875 95.79675 77.111 92.588125 83.1215 87.873875 87.8395 83.160125 92.557625 77.152625 95.77125 70.611375 97.073875 64.0705 98.3765 57.29 97.709625 51.128 95.15725 44.9665 92.605 39.700125 88.282 35.99625 82.73575 32.291875 77.1895 30.3165 70.669125 30.319 63.9995 30.3305 55.071875 33.880375 46.513 40.190375 40.1975 46.500375 33.881875 55.056375 30.32475 63.984375 30.305625ZM63.984375 25.14975C56.297125 25.14975 48.78225 27.4295 42.39075 31.700875 35.99925 35.97175 31.017875 42.042375 28.076375 49.144625 25.135375 56.247375 24.366625 64.06225 25.867625 71.601875 27.368125 79.141125 31.07125 86.065875 36.507875 91.50075 41.944875 96.935625 48.871 100.63575 56.411 102.13375 63.951125 103.63175 71.765875 102.859875 78.867 99.916375 85.968375 96.972375 92.037375 91.988875 96.306125 85.59575 100.5745 79.2025 102.851625 71.68675 102.848625 63.9995 102.848625 58.896625 101.8435 53.8435 99.890125 49.128875 97.936875 44.414625 95.073875 40.131375 91.46475 36.523375 87.855625 32.9155 83.571 30.05425 78.855875 28.10275 74.14075 26.151125 69.08725 25.148 63.984375 25.14975Z"
         class="hierarchical-1:primary "
         id="path44"
         style="fill:#ffffff;fill-opacity:1" />
      <path
         d="M51.631 82.9145L84.361625 64.00075 51.631 45.101625V82.9145Z"
         class="hierarchical-1:primary "
         id="path45"
         style="fill:#ffffff;fill-opacity:1" />
    </g>
    <g
       id="Ultralight-M"
       transform="matrix(1,0,0,1,495.711,1026.77)">
      <path
         d="M63.98525 128C76.644 128.0025 89.019125 124.25175 99.545875 117.221125 110.072625 110.1905 118.277875 100.19625 123.124375 88.502125 127.97 76.807625 129.24 63.938875 126.7725 51.523375 124.304125 39.107375 118.21 27.7025 109.26025 18.75025 100.31 9.7982875 88.9065 3.7014625 76.49125 1.2308525 64.076125-1.23980625 51.207 0.02675575 39.511625 4.8703625 27.816125 9.7138 17.81975 17.916875 10.7865875 28.441875 3.753825 38.967 0.0000020613625 51.341625 0.0000020613625 64-0.002131275 72.404 1.651625 80.726125 4.8661375 88.490625 8.0810875 96.2555 12.793625 103.310875 18.735375 109.254 24.677125 115.197 31.73175 119.911625 39.49575 123.128375 47.259875 126.345 55.581625 128 63.98525 128Z"
         class="hierarchical-1:primary "
         id="path46" />
      <path
         d="M63.984375 30.305625C70.653625 30.296625 77.175625 32.266625 82.72525 35.96625 88.275 39.665375 92.60225 44.927875 95.159625 51.08725 97.7175 57.247125 98.390375 64.026875 97.093375 70.568875 95.79675 77.111 92.588125 83.1215 87.873875 87.8395 83.160125 92.557625 77.152625 95.77125 70.611375 97.073875 64.0705 98.3765 57.29 97.709625 51.128 95.15725 44.9665 92.605 39.700125 88.282 35.99625 82.73575 32.291875 77.1895 30.3165 70.669125 30.319 63.9995 30.3305 55.071875 33.880375 46.513 40.190375 40.1975 46.500375 33.881875 55.056375 30.32475 63.984375 30.305625ZM63.984375 25.14975C56.297125 25.14975 48.78225 27.4295 42.39075 31.700875 35.99925 35.97175 31.017875 42.042375 28.076375 49.144625 25.135375 56.247375 24.366625 64.06225 25.867625 71.601875 27.368125 79.141125 31.07125 86.065875 36.507875 91.50075 41.944875 96.935625 48.871 100.63575 56.411 102.13375 63.951125 103.63175 71.765875 102.859875 78.867 99.916375 85.968375 96.972375 92.037375 91.988875 96.306125 85.59575 100.5745 79.2025 102.851625 71.68675 102.848625 63.9995 102.848625 58.896625 101.8435 53.8435 99.890125 49.128875 97.936875 44.414625 95.073875 40.131375 91.46475 36.523375 87.855625 32.9155 83.571 30.05425 78.855875 28.10275 74.14075 26.151125 69.08725 25.148 63.984375 25.14975Z"
         class="hierarchical-1:primary "
         id="path47"
         style="fill:#ffffff;fill-opacity:1" />
      <path
         d="M51.631 82.9145L84.361625 64.00075 51.631 45.101625V82.9145Z"
         class="hierarchical-1:primary "
         id="path48"
         style="fill:#ffffff;fill-opacity:1" />
    </g>
    <g
       id="Black-S"
       transform="matrix(1,0,0,1,2885.3999999999996,612.7705000000001)">
      <path
         d="M47.9889375 96C57.483000000000004 96.001875 66.76434375 93.1888125 74.65940624999999 87.91584375 82.55446875 82.642875 88.70840625 75.1471875 92.34328125 66.37659375000001 95.97749999999999 57.60571875 96.93 47.954156250000004 95.079375 38.642531250000005 93.22809375 29.33053125 88.6575 20.776875 81.9451875 14.062687500000001 75.2325 7.3487156250000005 66.679875 2.776096875 57.3684375 0.9231393749999999 48.05709375000001-0.9298546875 38.40525 0.0200668125 29.63371875 3.652771875 20.86209375 7.285350000000001 13.3648125 13.43765625 8.089940625 21.33140625 2.81536875 29.22525 0.0000015460218750000002 38.50621875 0.0000015460218750000002 48-0.0015984562500000001 54.303 1.2387187499999999 60.54459375 3.6496031249999996 66.36796874999999 6.060815625 72.191625 9.59521875 77.48315625 14.05153125 81.9405 18.50784375 86.39775 23.7988125 89.93371875 29.6218125 92.34628125 35.44490625 94.75874999999999 41.68621875 96 47.9889375 96Z"
         class="hierarchical-1:primary "
         id="path49" />
      <path
         d="M47.98828125 22.72921875C52.990218750000004 22.722468749999997 57.88171875 24.199968749999996 62.0439375 26.9746875 66.20625000000001 29.749031249999998 69.45168749999999 33.69590625 71.36971875 38.3154375 73.28812500000001 42.93534375 73.79278125 48.02015625 72.82003125 52.92665625000001 71.84756250000001 57.83325000000001 69.44109375000001 62.341125 65.90540625 65.879625 62.370093749999995 69.41821875 57.86446875 71.82843749999999 52.95853124999999 72.80540625 48.052875 73.782375 42.9675 73.28221875 38.346000000000004 71.36793750000001 33.724875000000004 69.45375 29.77509375 66.2115 26.997187500000003 62.0518125 24.218906249999996 57.89212499999999 22.737375 53.00184374999999 22.73925 47.999624999999995 22.747875 41.30390625 25.41028125 34.88475 30.142781250000002 30.148125 34.87528125 25.41140625 41.29228125 22.743562500000003 47.98828125 22.72921875ZM47.98828125 18.8623125C42.22284375 18.8623125 36.5866875 20.572125 31.793062499999998 23.77565625 26.999437500000003 26.9788125 23.26340625 31.53178125 21.05728125 36.85846875 18.85153125 42.18553125 18.27496875 48.046687500000004 19.40071875 53.701406250000005 20.52609375 59.355843750000005 23.3034375 64.54940625 27.38090625 68.6255625 31.458656250000004 72.70171875 36.65325 75.4768125 42.30825 76.6003125 47.96334375 77.7238125 53.824406249999996 77.14490625 59.15025 74.93728125 64.47628125 72.72928125 69.02803125 68.99165624999999 72.22959374999999 64.1968125 75.430875 59.401875000000004 77.13871875 53.7650625 77.13646875 47.999624999999995 77.13646875 44.17246875 76.382625 40.382625 74.91759375 36.84665625 73.45265625 33.31096875 71.30540625 30.09853125 68.5985625 27.39253125 65.89171875 24.686625 62.67825 22.5406875 59.14190625 21.0770625 55.6055625 19.61334375 51.8154375 18.861 47.98828125 18.8623125Z"
         class="hierarchical-1:primary "
         id="path50"
         style="fill:#ffffff;fill-opacity:1" />
      <path
         d="M38.72325 62.185875L63.27121875 48.0005625 38.72325 33.826218749999995V62.185875Z"
         class="hierarchical-1:primary "
         id="path51"
         style="fill:#ffffff;fill-opacity:1" />
    </g>
    <g
       id="Regular-S"
       transform="matrix(1,0,0,1,1401.845,612.7705000000001)">
      <path
         d="M47.9889375 96C57.483000000000004 96.001875 66.76434375 93.1888125 74.65940624999999 87.91584375 82.55446875 82.642875 88.70840625 75.1471875 92.34328125 66.37659375000001 95.97749999999999 57.60571875 96.93 47.954156250000004 95.079375 38.642531250000005 93.22809375 29.33053125 88.6575 20.776875 81.9451875 14.062687500000001 75.2325 7.3487156250000005 66.679875 2.776096875 57.3684375 0.9231393749999999 48.05709375000001-0.9298546875 38.40525 0.0200668125 29.63371875 3.652771875 20.86209375 7.285350000000001 13.3648125 13.43765625 8.089940625 21.33140625 2.81536875 29.22525 0.0000015460218750000002 38.50621875 0.0000015460218750000002 48-0.0015984562500000001 54.303 1.2387187499999999 60.54459375 3.6496031249999996 66.36796874999999 6.060815625 72.191625 9.59521875 77.48315625 14.05153125 81.9405 18.50784375 86.39775 23.7988125 89.93371875 29.6218125 92.34628125 35.44490625 94.75874999999999 41.68621875 96 47.9889375 96Z"
         class="hierarchical-1:primary "
         id="path52" />
      <path
         d="M47.98828125 22.72921875C52.990218750000004 22.722468749999997 57.88171875 24.199968749999996 62.0439375 26.9746875 66.20625000000001 29.749031249999998 69.45168749999999 33.69590625 71.36971875 38.3154375 73.28812500000001 42.93534375 73.79278125 48.02015625 72.82003125 52.92665625000001 71.84756250000001 57.83325000000001 69.44109375000001 62.341125 65.90540625 65.879625 62.370093749999995 69.41821875 57.86446875 71.82843749999999 52.95853124999999 72.80540625 48.052875 73.782375 42.9675 73.28221875 38.346000000000004 71.36793750000001 33.724875000000004 69.45375 29.77509375 66.2115 26.997187500000003 62.0518125 24.218906249999996 57.89212499999999 22.737375 53.00184374999999 22.73925 47.999624999999995 22.747875 41.30390625 25.41028125 34.88475 30.142781250000002 30.148125 34.87528125 25.41140625 41.29228125 22.743562500000003 47.98828125 22.72921875ZM47.98828125 18.8623125C42.22284375 18.8623125 36.5866875 20.572125 31.793062499999998 23.77565625 26.999437500000003 26.9788125 23.26340625 31.53178125 21.05728125 36.85846875 18.85153125 42.18553125 18.27496875 48.046687500000004 19.40071875 53.701406250000005 20.52609375 59.355843750000005 23.3034375 64.54940625 27.38090625 68.6255625 31.458656250000004 72.70171875 36.65325 75.4768125 42.30825 76.6003125 47.96334375 77.7238125 53.824406249999996 77.14490625 59.15025 74.93728125 64.47628125 72.72928125 69.02803125 68.99165624999999 72.22959374999999 64.1968125 75.430875 59.401875000000004 77.13871875 53.7650625 77.13646875 47.999624999999995 77.13646875 44.17246875 76.382625 40.382625 74.91759375 36.84665625 73.45265625 33.31096875 71.30540625 30.09853125 68.5985625 27.39253125 65.89171875 24.686625 62.67825 22.5406875 59.14190625 21.0770625 55.6055625 19.61334375 51.8154375 18.861 47.98828125 18.8623125Z"
         class="hierarchical-1:primary "
         id="path53"
         style="fill:#ffffff;fill-opacity:1" />
      <path
         d="M38.72325 62.185875L63.27121875 48.0005625 38.72325 33.826218749999995V62.185875Z"
         class="hierarchical-1:primary "
         id="path54"
         style="fill:#ffffff;fill-opacity:1" />
    </g>
    <g
       id="Ultralight-S"
       transform="matrix(1,0,0,1,511.711,612.7705000000001)">
      <path
         d="M47.9889375 96C57.483000000000004 96.001875 66.76434375 93.1888125 74.65940624999999 87.91584375 82.55446875 82.642875 88.70840625 75.1471875 92.34328125 66.37659375000001 95.97749999999999 57.60571875 96.93 47.954156250000004 95.079375 38.642531250000005 93.22809375 29.33053125 88.6575 20.776875 81.9451875 14.062687500000001 75.2325 7.3487156250000005 66.679875 2.776096875 57.3684375 0.9231393749999999 48.05709375000001-0.9298546875 38.40525 0.0200668125 29.63371875 3.652771875 20.86209375 7.285350000000001 13.3648125 13.43765625 8.089940625 21.33140625 2.81536875 29.22525 0.0000015460218750000002 38.50621875 0.0000015460218750000002 48-0.0015984562500000001 54.303 1.2387187499999999 60.54459375 3.6496031249999996 66.36796874999999 6.060815625 72.191625 9.59521875 77.48315625 14.05153125 81.9405 18.50784375 86.39775 23.7988125 89.93371875 29.6218125 92.34628125 35.44490625 94.75874999999999 41.68621875 96 47.9889375 96Z"
         class="hierarchical-1:primary "
         id="path55" />
      <path
         d="M47.98828125 22.72921875C52.990218750000004 22.722468749999997 57.88171875 24.199968749999996 62.0439375 26.9746875 66.20625000000001 29.749031249999998 69.45168749999999 33.69590625 71.36971875 38.3154375 73.28812500000001 42.93534375 73.79278125 48.02015625 72.82003125 52.92665625000001 71.84756250000001 57.83325000000001 69.44109375000001 62.341125 65.90540625 65.879625 62.370093749999995 69.41821875 57.86446875 71.82843749999999 52.95853124999999 72.80540625 48.052875 73.782375 42.9675 73.28221875 38.346000000000004 71.36793750000001 33.724875000000004 69.45375 29.77509375 66.2115 26.997187500000003 62.0518125 24.218906249999996 57.89212499999999 22.737375 53.00184374999999 22.73925 47.999624999999995 22.747875 41.30390625 25.41028125 34.88475 30.142781250000002 30.148125 34.87528125 25.41140625 41.29228125 22.743562500000003 47.98828125 22.72921875ZM47.98828125 18.8623125C42.22284375 18.8623125 36.5866875 20.572125 31.793062499999998 23.77565625 26.999437500000003 26.9788125 23.26340625 31.53178125 21.05728125 36.85846875 18.85153125 42.18553125 18.27496875 48.046687500000004 19.40071875 53.701406250000005 20.52609375 59.355843750000005 23.3034375 64.54940625 27.38090625 68.6255625 31.458656250000004 72.70171875 36.65325 75.4768125 42.30825 76.6003125 47.96334375 77.7238125 53.824406249999996 77.14490625 59.15025 74.93728125 64.47628125 72.72928125 69.02803125 68.99165624999999 72.22959374999999 64.1968125 75.430875 59.401875000000004 77.13871875 53.7650625 77.13646875 47.999624999999995 77.13646875 44.17246875 76.382625 40.382625 74.91759375 36.84665625 73.45265625 33.31096875 71.30540625 30.09853125 68.5985625 27.39253125 65.89171875 24.686625 62.67825 22.5406875 59.14190625 21.0770625 55.6055625 19.61334375 51.8154375 18.861 47.98828125 18.8623125Z"
         class="hierarchical-1:primary "
         id="path56"
         style="fill:#ffffff;fill-opacity:1" />
      <path
         d="M38.72325 62.185875L63.27121875 48.0005625 38.72325 33.826218749999995V62.185875Z"
         class="hierarchical-1:primary "
         id="path57"
         style="fill:#f6f6f6;fill-opacity:1" />
    </g>
  </g>
</svg>
