<svg xmlns="http://www.w3.org/2000/svg" xmlns:xlink="http://www.w3.org/1999/xlink" version="1.1" width="3300" height="2200">
 <!--glyph: "", point size: 100.0, font version: "17.1d1e1", template writer version: "65.1"-->
<style>

.hierarchical-1:primary {fill:#262626;}
.SFSymbolsPreview262626 {fill:#262626;}
</style>
 <g id="Notes">
  <rect height="2200" id="artboard" style="fill:white;opacity:1" width="3300" x="0" y="0"/>
  <line style="fill:none;stroke:black;opacity:1;stroke-width:0.5;" x1="263" x2="3036" y1="292" y2="292"/>
  <text style="stroke:none;fill:black;font-family:sans-serif;font-size:13;font-weight:bold;" transform="matrix(1 0 0 1 263 322)">Weight/Scale Variations</text>
  <text style="stroke:none;fill:black;font-family:sans-serif;font-size:13;text-anchor:middle;" transform="matrix(1 0 0 1 559.711 322)">Ultralight</text>
  <text style="stroke:none;fill:black;font-family:sans-serif;font-size:13;text-anchor:middle;" transform="matrix(1 0 0 1 856.422 322)">Thin</text>
  <text style="stroke:none;fill:black;font-family:sans-serif;font-size:13;text-anchor:middle;" transform="matrix(1 0 0 1 1153.13 322)">Light</text>
  <text style="stroke:none;fill:black;font-family:sans-serif;font-size:13;text-anchor:middle;" transform="matrix(1 0 0 1 1449.84 322)">Regular</text>
  <text style="stroke:none;fill:black;font-family:sans-serif;font-size:13;text-anchor:middle;" transform="matrix(1 0 0 1 1746.56 322)">Medium</text>
  <text style="stroke:none;fill:black;font-family:sans-serif;font-size:13;text-anchor:middle;" transform="matrix(1 0 0 1 2043.27 322)">Semibold</text>
  <text style="stroke:none;fill:black;font-family:sans-serif;font-size:13;text-anchor:middle;" transform="matrix(1 0 0 1 2339.98 322)">Bold</text>
  <text style="stroke:none;fill:black;font-family:sans-serif;font-size:13;text-anchor:middle;" transform="matrix(1 0 0 1 2636.69 322)">Heavy</text>
  <text style="stroke:none;fill:black;font-family:sans-serif;font-size:13;text-anchor:middle;" transform="matrix(1 0 0 1 2933.4 322)">Black</text>
  <line style="fill:none;stroke:black;opacity:1;stroke-width:0.5;" x1="263" x2="3036" y1="1903" y2="1903"/>
  <g transform="matrix(1 0 0 1 263 1933)">
   <path d="M9.24805 0.830078Q10.8691 0.830078 12.2949 0.214844Q13.7207-0.400391 14.8096-1.49414Q15.8984-2.58789 16.5186-4.01367Q17.1387-5.43945 17.1387-7.05078Q17.1387-8.66211 16.5186-10.0879Q15.8984-11.5137 14.8047-12.6074Q13.7109-13.7012 12.2852-14.3164Q10.8594-14.9316 9.23828-14.9316Q7.62695-14.9316 6.20117-14.3164Q4.77539-13.7012 3.69141-12.6074Q2.60742-11.5137 1.9873-10.0879Q1.36719-8.66211 1.36719-7.05078Q1.36719-5.43945 1.9873-4.01367Q2.60742-2.58789 3.69629-1.49414Q4.78516-0.400391 6.21094 0.214844Q7.63672 0.830078 9.24805 0.830078ZM9.24805-0.654297Q7.91992-0.654297 6.7627-1.14746Q5.60547-1.64062 4.73145-2.51953Q3.85742-3.39844 3.36426-4.56055Q2.87109-5.72266 2.87109-7.05078Q2.87109-8.37891 3.35938-9.54102Q3.84766-10.7031 4.72168-11.582Q5.5957-12.4609 6.75293-12.9541Q7.91016-13.4473 9.23828-13.4473Q10.5762-13.4473 11.7334-12.9541Q12.8906-12.4609 13.7695-11.582Q14.6484-10.7031 15.1465-9.54102Q15.6445-8.37891 15.6445-7.05078Q15.6445-5.72266 15.1514-4.56055Q14.6582-3.39844 13.7842-2.51953Q12.9102-1.64062 11.748-1.14746Q10.5859-0.654297 9.24805-0.654297ZM5.6543-7.05078Q5.6543-6.72852 5.85938-6.52832Q6.06445-6.32812 6.40625-6.32812L8.51562-6.32812L8.51562-4.20898Q8.51562-3.88672 8.71094-3.67676Q8.90625-3.4668 9.23828-3.4668Q9.56055-3.4668 9.77051-3.67676Q9.98047-3.88672 9.98047-4.20898L9.98047-6.32812L12.0898-6.32812Q12.4219-6.32812 12.627-6.52832Q12.832-6.72852 12.832-7.05078Q12.832-7.38281 12.627-7.58789Q12.4219-7.79297 12.0898-7.79297L9.98047-7.79297L9.98047-9.90234Q9.98047-10.2344 9.77051-10.4443Q9.56055-10.6543 9.23828-10.6543Q8.90625-10.6543 8.71094-10.4443Q8.51562-10.2344 8.51562-9.90234L8.51562-7.79297L6.40625-7.79297Q6.06445-7.79297 5.85938-7.58789Q5.6543-7.38281 5.6543-7.05078Z"/>
  </g>
  <g transform="matrix(1 0 0 1 281.867 1933)">
   <path d="M11.709 2.91016Q13.75 2.91016 15.5518 2.12891Q17.3535 1.34766 18.7305-0.0292969Q20.1074-1.40625 20.8887-3.20801Q21.6699-5.00977 21.6699-7.05078Q21.6699-9.0918 20.8887-10.8936Q20.1074-12.6953 18.7305-14.0723Q17.3535-15.4492 15.5469-16.2305Q13.7402-17.0117 11.6992-17.0117Q9.6582-17.0117 7.85645-16.2305Q6.05469-15.4492 4.68262-14.0723Q3.31055-12.6953 2.5293-10.8936Q1.74805-9.0918 1.74805-7.05078Q1.74805-5.00977 2.5293-3.20801Q3.31055-1.40625 4.6875-0.0292969Q6.06445 1.34766 7.86621 2.12891Q9.66797 2.91016 11.709 2.91016ZM11.709 1.25Q9.98047 1.25 8.47656 0.605469Q6.97266-0.0390625 5.83496-1.17676Q4.69727-2.31445 4.05762-3.81836Q3.41797-5.32227 3.41797-7.05078Q3.41797-8.7793 4.05762-10.2832Q4.69727-11.7871 5.83008-12.9297Q6.96289-14.0723 8.4668-14.7119Q9.9707-15.3516 11.6992-15.3516Q13.4277-15.3516 14.9316-14.7119Q16.4355-14.0723 17.5781-12.9297Q18.7207-11.7871 19.3652-10.2832Q20.0098-8.7793 20.0098-7.05078Q20.0098-5.32227 19.3701-3.81836Q18.7305-2.31445 17.5928-1.17676Q16.4551-0.0390625 14.9463 0.605469Q13.4375 1.25 11.709 1.25ZM7.17773-7.05078Q7.17773-6.69922 7.41211-6.47461Q7.64648-6.25 8.01758-6.25L10.8887-6.25L10.8887-3.36914Q10.8887-2.99805 11.1133-2.76855Q11.3379-2.53906 11.6895-2.53906Q12.0605-2.53906 12.29-2.76855Q12.5195-2.99805 12.5195-3.36914L12.5195-6.25L15.4004-6.25Q15.7715-6.25 16.001-6.47461Q16.2305-6.69922 16.2305-7.05078Q16.2305-7.42188 16.001-7.65137Q15.7715-7.88086 15.4004-7.88086L12.5195-7.88086L12.5195-10.752Q12.5195-11.1328 12.29-11.3623Q12.0605-11.5918 11.6895-11.5918Q11.3379-11.5918 11.1133-11.3574Q10.8887-11.123 10.8887-10.752L10.8887-7.88086L8.01758-7.88086Q7.63672-7.88086 7.40723-7.65137Q7.17773-7.42188 7.17773-7.05078Z"/>
  </g>
  <g transform="matrix(1 0 0 1 305.646 1933)">
   <path d="M14.9707 5.66406Q17.0605 5.66406 18.96 5.01465Q20.8594 4.36523 22.4512 3.19336Q24.043 2.02148 25.2197 0.429688Q26.3965-1.16211 27.0459-3.06641Q27.6953-4.9707 27.6953-7.05078Q27.6953-9.14062 27.0459-11.04Q26.3965-12.9395 25.2197-14.5312Q24.043-16.123 22.4512-17.2998Q20.8594-18.4766 18.9551-19.126Q17.0508-19.7754 14.9609-19.7754Q12.8711-19.7754 10.9717-19.126Q9.07227-18.4766 7.48535-17.2998Q5.89844-16.123 4.72168-14.5312Q3.54492-12.9395 2.90039-11.04Q2.25586-9.14062 2.25586-7.05078Q2.25586-4.9707 2.90527-3.06641Q3.55469-1.16211 4.72656 0.429688Q5.89844 2.02148 7.49023 3.19336Q9.08203 4.36523 10.9814 5.01465Q12.8809 5.66406 14.9707 5.66406ZM14.9707 3.84766Q13.1641 3.84766 11.5283 3.2959Q9.89258 2.74414 8.53516 1.74805Q7.17773 0.751953 6.17676-0.610352Q5.17578-1.97266 4.62891-3.6084Q4.08203-5.24414 4.08203-7.05078Q4.08203-8.86719 4.62891-10.5029Q5.17578-12.1387 6.17188-13.501Q7.16797-14.8633 8.52539-15.8594Q9.88281-16.8555 11.5186-17.4023Q13.1543-17.9492 14.9609-17.9492Q16.7773-17.9492 18.4131-17.4023Q20.0488-16.8555 21.4111-15.8594Q22.7734-14.8633 23.7695-13.501Q24.7656-12.1387 25.3174-10.5029Q25.8691-8.86719 25.8691-7.05078Q25.8789-5.24414 25.332-3.6084Q24.7852-1.97266 23.7842-0.610352Q22.7832 0.751953 21.4209 1.74805Q20.0586 2.74414 18.4229 3.2959Q16.7871 3.84766 14.9707 3.84766ZM9.19922-7.05078Q9.19922-6.66992 9.45801-6.4209Q9.7168-6.17188 10.1172-6.17188L14.0625-6.17188L14.0625-2.2168Q14.0625-1.81641 14.3115-1.55762Q14.5605-1.29883 14.9512-1.29883Q15.3516-1.29883 15.6104-1.55273Q15.8691-1.80664 15.8691-2.2168L15.8691-6.17188L19.8242-6.17188Q20.2246-6.17188 20.4785-6.4209Q20.7324-6.66992 20.7324-7.05078Q20.7324-7.46094 20.4785-7.71484Q20.2246-7.96875 19.8242-7.96875L15.8691-7.96875L15.8691-11.9141Q15.8691-12.3242 15.6104-12.583Q15.3516-12.8418 14.9512-12.8418Q14.5605-12.8418 14.3115-12.583Q14.0625-12.3242 14.0625-11.9141L14.0625-7.96875L10.1172-7.96875Q9.70703-7.96875 9.45312-7.71484Q9.19922-7.46094 9.19922-7.05078Z"/>
  </g>
  <text style="stroke:none;fill:black;font-family:sans-serif;font-size:13;font-weight:bold;" transform="matrix(1 0 0 1 263 1953)">Design Variations</text>
  <text style="stroke:none;fill:black;font-family:sans-serif;font-size:13;" transform="matrix(1 0 0 1 263 1971)">Symbols are supported in up to nine weights and three scales.</text>
  <text style="stroke:none;fill:black;font-family:sans-serif;font-size:13;" transform="matrix(1 0 0 1 263 1989)">For optimal layout with text and other symbols, vertically align</text>
  <text style="stroke:none;fill:black;font-family:sans-serif;font-size:13;" transform="matrix(1 0 0 1 263 2007)">symbols with the adjacent text.</text>
  <line style="fill:none;stroke:#00AEEF;stroke-width:0.5;opacity:1.0;" x1="776" x2="776" y1="1919" y2="1933"/>
  <g transform="matrix(1 0 0 1 776 1933)">
   <path d="M3.31055 0.15625Q3.70117 0.15625 3.91602-0.00976562Q4.13086-0.175781 4.26758-0.585938L5.52734-4.0332L11.2891-4.0332L12.5488-0.585938Q12.6855-0.175781 12.9004-0.00976562Q13.1152 0.15625 13.4961 0.15625Q13.8867 0.15625 14.1162-0.0585938Q14.3457-0.273438 14.3457-0.644531Q14.3457-0.869141 14.2383-1.17188L9.6582-13.3691Q9.48242-13.8184 9.17969-14.043Q8.87695-14.2676 8.4082-14.2676Q7.5-14.2676 7.17773-13.3789L2.59766-1.16211Q2.49023-0.859375 2.49023-0.634766Q2.49023-0.263672 2.70996-0.0537109Q2.92969 0.15625 3.31055 0.15625ZM6.00586-5.51758L8.37891-12.0898L8.42773-12.0898L10.8008-5.51758Z"/>
  </g>
  <line style="fill:none;stroke:#00AEEF;stroke-width:0.5;opacity:1.0;" x1="793.197" x2="793.197" y1="1919" y2="1933"/>
  <text style="stroke:none;fill:black;font-family:sans-serif;font-size:13;font-weight:bold;" transform="matrix(1 0 0 1 776 1953)">Margins</text>
  <text style="stroke:none;fill:black;font-family:sans-serif;font-size:13;" transform="matrix(1 0 0 1 776 1971)">Leading and trailing margins on the left and right side of each symbol</text>
  <text style="stroke:none;fill:black;font-family:sans-serif;font-size:13;" transform="matrix(1 0 0 1 776 1989)">can be adjusted by modifying the x-location of the margin guidelines.</text>
  <text style="stroke:none;fill:black;font-family:sans-serif;font-size:13;" transform="matrix(1 0 0 1 776 2007)">Modifications are automatically applied proportionally to all</text>
  <text style="stroke:none;fill:black;font-family:sans-serif;font-size:13;" transform="matrix(1 0 0 1 776 2025)">scales and weights.</text>
  <g transform="matrix(1 0 0 1 1289 1933)">
   <path d="M2.8418 1.86523L4.54102 3.57422Q5.18555 4.22852 5.90332 4.17969Q6.62109 4.13086 7.31445 3.35938L18.0078-8.42773L17.041-9.4043L6.42578 2.27539Q6.16211 2.57812 5.89355 2.61719Q5.625 2.65625 5.27344 2.30469L4.10156 1.14258Q3.75 0.791016 3.79395 0.522461Q3.83789 0.253906 4.14062-0.0195312L15.6152-10.8203L14.6387-11.7871L3.04688-0.898438Q2.30469-0.214844 2.25098 0.498047Q2.19727 1.21094 2.8418 1.86523ZM9.25781-16.3281Q8.94531-16.0254 8.90625-15.6348Q8.86719-15.2441 9.04297-14.9512Q9.21875-14.6777 9.55566-14.541Q9.89258-14.4043 10.3809-14.5215Q11.4746-14.7754 12.5977-14.7314Q13.7207-14.6875 14.7949-13.9844L14.209-12.5293Q13.9551-11.9043 14.0674-11.4404Q14.1797-10.9766 14.5801-10.5664L16.875-8.25195Q17.2363-7.88086 17.5781-7.82227Q17.9199-7.76367 18.3398-7.8418L19.4043-8.03711L20.0684-7.36328L20.0293-6.80664Q20-6.43555 20.1221-6.12305Q20.2441-5.81055 20.6055-5.44922L21.3672-4.70703Q21.7285-4.3457 22.1533-4.33105Q22.5781-4.31641 22.9297-4.66797L25.8398-7.58789Q26.1914-7.93945 26.1816-8.35449Q26.1719-8.76953 25.8105-9.13086L25.0391-9.89258Q24.6875-10.2539 24.3799-10.3857Q24.0723-10.5176 23.7109-10.4883L23.1348-10.4395L22.4902-11.0742L22.7344-12.1973Q22.832-12.6172 22.6953-12.9834Q22.5586-13.3496 22.1191-13.7891L19.9219-15.9766Q18.6719-17.2168 17.2607-17.8369Q15.8496-18.457 14.4189-18.4814Q12.9883-18.5059 11.665-17.959Q10.3418-17.4121 9.25781-16.3281ZM10.752-15.957Q11.6602-16.6211 12.7002-16.9043Q13.7402-17.1875 14.8047-17.085Q15.8691-16.9824 16.8701-16.5137Q17.8711-16.0449 18.7012-15.2051L21.1328-12.793Q21.3086-12.6172 21.3525-12.4512Q21.3965-12.2852 21.3379-12.0312L21.0156-10.5469L22.5195-9.0625L23.5059-9.12109Q23.6914-9.13086 23.7891-9.09668Q23.8867-9.0625 24.0332-8.91602L24.6094-8.33984L22.168-5.89844L21.5918-6.47461Q21.4453-6.62109 21.4062-6.71875Q21.3672-6.81641 21.377-7.01172L21.4453-7.98828L19.9512-9.47266L18.4277-9.21875Q18.1836-9.16992 18.042-9.2041Q17.9004-9.23828 17.7148-9.41406L15.7129-11.416Q15.5176-11.5918 15.4932-11.7529Q15.4688-11.9141 15.5859-12.1875L16.4648-14.2773Q15.293-15.3711 13.8281-15.791Q12.3633-16.2109 10.8398-15.7617Q10.7227-15.7324 10.6885-15.8057Q10.6543-15.8789 10.752-15.957Z"/>
  </g>
  <text style="stroke:none;fill:black;font-family:sans-serif;font-size:13;font-weight:bold;" transform="matrix(1 0 0 1 1289 1953)">Exporting</text>
  <text style="stroke:none;fill:black;font-family:sans-serif;font-size:13;" transform="matrix(1 0 0 1 1289 1971)">Symbols should be outlined when exporting to ensure the</text>
  <text style="stroke:none;fill:black;font-family:sans-serif;font-size:13;" transform="matrix(1 0 0 1 1289 1989)">design is preserved when submitting to Xcode.</text>
  <text id="template-version" style="stroke:none;fill:black;font-family:sans-serif;font-size:13;text-anchor:end;" transform="matrix(1 0 0 1 3036 1933)">Template v.3.0</text>
  <text style="stroke:none;fill:black;font-family:sans-serif;font-size:13;text-anchor:end;" transform="matrix(1 0 0 1 3036 1951)">Requires Xcode 13 or greater</text>
  <text id="descriptive-name" style="stroke:none;fill:black;font-family:sans-serif;font-size:13;text-anchor:end;" transform="matrix(1 0 0 1 3036 1969)">Symbol moniker: deezer-logo</text>
  <text style="stroke:none;fill:black;font-family:sans-serif;font-size:13;text-anchor:end;" transform="matrix(1 0 0 1 3036 1987)">Typeset at 100 points</text>
  <text style="stroke:none;fill:black;font-family:sans-serif;font-size:13;" transform="matrix(1 0 0 1 263 726)">Small</text>
  <text style="stroke:none;fill:black;font-family:sans-serif;font-size:13;" transform="matrix(1 0 0 1 263 1156)">Medium</text>
  <text style="stroke:none;fill:black;font-family:sans-serif;font-size:13;" transform="matrix(1 0 0 1 263 1586)">Large</text>
 </g>
 <g id="Guides">
  <g id="H-reference" style="fill:#27AAE1;stroke:none;" transform="matrix(1 0 0 1 339 696)">
   <path d="M0.976562 0L3.66211 0L29.3457-67.1387L30.0293-67.1387L30.0293-70.459L28.125-70.459ZM11.6699-24.4629L46.9727-24.4629L46.2402-26.709L12.4512-26.709ZM55.127 0L57.7637 0L30.6152-70.459L29.4434-70.459L29.4434-67.1387Z"/>
  </g>
  <line id="Baseline-S" style="fill:none;stroke:#27AAE1;opacity:1;stroke-width:0.5;" x1="263" x2="3036" y1="696" y2="696"/>
  <line id="Capline-S" style="fill:none;stroke:#27AAE1;opacity:1;stroke-width:0.5;" x1="263" x2="3036" y1="625.541" y2="625.541"/>
  <g id="H-reference" style="fill:#27AAE1;stroke:none;" transform="matrix(1 0 0 1 339 1126)">
   <path d="M0.976562 0L3.66211 0L29.3457-67.1387L30.0293-67.1387L30.0293-70.459L28.125-70.459ZM11.6699-24.4629L46.9727-24.4629L46.2402-26.709L12.4512-26.709ZM55.127 0L57.7637 0L30.6152-70.459L29.4434-70.459L29.4434-67.1387Z"/>
  </g>
  <line id="Baseline-M" style="fill:none;stroke:#27AAE1;opacity:1;stroke-width:0.5;" x1="263" x2="3036" y1="1126" y2="1126"/>
  <line id="Capline-M" style="fill:none;stroke:#27AAE1;opacity:1;stroke-width:0.5;" x1="263" x2="3036" y1="1055.54" y2="1055.54"/>
  <g id="H-reference" style="fill:#27AAE1;stroke:none;" transform="matrix(1 0 0 1 339 1556)">
   <path d="M0.976562 0L3.66211 0L29.3457-67.1387L30.0293-67.1387L30.0293-70.459L28.125-70.459ZM11.6699-24.4629L46.9727-24.4629L46.2402-26.709L12.4512-26.709ZM55.127 0L57.7637 0L30.6152-70.459L29.4434-70.459L29.4434-67.1387Z"/>
  </g>
  <line id="Baseline-L" style="fill:none;stroke:#27AAE1;opacity:1;stroke-width:0.5;" x1="263" x2="3036" y1="1556" y2="1556"/>
  <line id="Capline-L" style="fill:none;stroke:#27AAE1;opacity:1;stroke-width:0.5;" x1="263" x2="3036" y1="1485.54" y2="1485.54"/>
  <line id="left-margin-Ultralight-S" style="fill:none;stroke:#00AEEF;stroke-width:0.5;opacity:1.0;" x1="515.351" x2="515.351" y1="600.784" y2="720.121"/>
  <line id="right-margin-Ultralight-S" style="fill:none;stroke:#00AEEF;stroke-width:0.5;opacity:1.0;" x1="604.071" x2="604.071" y1="600.784" y2="720.121"/>
  <line id="left-margin-Regular-S" style="fill:none;stroke:#00AEEF;stroke-width:0.5;opacity:1.0;" x1="1401.75" x2="1401.75" y1="600.784" y2="720.121"/>
  <line id="right-margin-Regular-S" style="fill:none;stroke:#00AEEF;stroke-width:0.5;opacity:1.0;" x1="1497.94" x2="1497.94" y1="600.784" y2="720.121"/>
  <line id="left-margin-Black-S" style="fill:none;stroke:#00AEEF;stroke-width:0.5;opacity:1.0;" x1="2883.2" x2="2883.2" y1="600.784" y2="720.121"/>
  <line id="right-margin-Black-S" style="fill:none;stroke:#00AEEF;stroke-width:0.5;opacity:1.0;" x1="2983.6" x2="2983.6" y1="600.784" y2="720.121"/>
 </g>
 <g id="Symbols">
  <g id="Black-L" transform="matrix(1,0,0,1,2853.3999999999996,1440.77)">

  <path d="M134.1928125 24.41046875C135.673125 15.83046875 137.84515625 10.435140624999999 140.25125 10.424796875H140.2565625C144.74328125 10.440265625 148.3803125 29.151406249999997 148.3803125 52.252968749999994 148.3803125 75.35437499999999 144.73796875 94.0809375 140.24625 94.0809375 138.40484375 94.0809375 136.70578125 90.90140625000001 135.3375 85.57296875 133.17546875 105.07765624999999 128.68875 118.48640625 123.49515625000001 118.48640625 119.47640625 118.48640625 115.8696875 110.43203125 113.44843750000001 97.72937499999999 111.79500000000002 121.88734374999999 107.6340625 139.02671875 102.770625 139.02671875 99.71859375 139.02671875 96.9359375 132.23499999999999 94.8759375 121.17640625 92.39859375 144.0046875 86.6759375 160 80.0015625 160 73.3275 160 67.59484375000001 144.0096875 65.12734375 121.17640625 63.08234374999999 132.23499999999999 60.300000000000004 139.02671875 57.23234375 139.02671875 52.369375 139.02671875 48.21828125 121.88734374999999 46.555 97.72937499999999 44.133593749999996 110.43203125 40.537343750000005 118.48640625 36.508281249999996 118.48640625 31.319531249999997 118.48640625 26.827968750000004 105.08296874999999 24.6659375 85.57296875 23.307812499999997 90.91703125000001 21.59859375 94.0809375 19.757031249999997 94.0809375 15.265281250000001 94.0809375 11.62303125 75.35437499999999 11.62303125 52.252968749999994 11.62303125 29.151406249999997 15.265281250000001 10.424796875 19.757031249999997 10.424796875 22.16828125 10.424796875 24.325156250000003 15.835625 25.820625 24.41046875 28.216562500000002 9.615765625 32.10828125 0 36.508281249999996 0 41.73265625 0 46.260000000000005 13.599171875 48.40171875 33.3459375 50.49734375 18.973906250000002 53.67671875 9.81159375 57.23765625 9.81159375 62.2278125 9.81159375 66.47046875 27.8321875 68.04249999999999 52.969375 70.99781250000001 40.0809375 75.27578125 31.9959375 80.011875 31.9959375 84.7478125 31.9959375 89.0259375 40.086406249999996 91.97625000000001 52.969375 93.55328125 27.8321875 97.790625 9.81159375 102.7809375 9.81159375 106.33671874999999 9.81159375 109.51109375 18.973906250000002 111.61703125000001 33.3459375 113.7534375 13.599171875 118.28078124999999 0 123.50515625 0 127.89015624999999 0 131.796875 9.6209375 134.1928125 24.41046875ZM0 48.139062499999994C0 37.812031250000004 2.0653125 29.438125 4.6138593750000005 29.438125 7.16240625 29.438125 9.227718750000001 37.812031250000004 9.227718750000001 48.139062499999994 9.227718750000001 58.465625 7.16240625 66.8396875 4.6138593750000005 66.8396875 2.0653125 66.8396875 0 58.465625 0 48.139062499999994ZM150.77234375 48.139062499999994C150.77234375 37.812031250000004 152.83734375 29.438125 155.3859375 29.438125 157.934375 29.438125 160 37.812031250000004 160 48.139062499999994 160 58.465625 157.934375 66.8396875 155.3859375 66.8396875 152.83734375 66.8396875 150.77234375 58.465625 150.77234375 48.139062499999994Z" class="hierarchical-1:primary "/></g>
  <g id="Regular-L" transform="matrix(1,0,0,1,1369.845,1440.77)">

  <path d="M134.1928125 24.41046875C135.673125 15.83046875 137.84515625 10.435140624999999 140.25125 10.424796875H140.2565625C144.74328125 10.440265625 148.3803125 29.151406249999997 148.3803125 52.252968749999994 148.3803125 75.35437499999999 144.73796875 94.0809375 140.24625 94.0809375 138.40484375 94.0809375 136.70578125 90.90140625000001 135.3375 85.57296875 133.17546875 105.07765624999999 128.68875 118.48640625 123.49515625000001 118.48640625 119.47640625 118.48640625 115.8696875 110.43203125 113.44843750000001 97.72937499999999 111.79500000000002 121.88734374999999 107.6340625 139.02671875 102.770625 139.02671875 99.71859375 139.02671875 96.9359375 132.23499999999999 94.8759375 121.17640625 92.39859375 144.0046875 86.6759375 160 80.0015625 160 73.3275 160 67.59484375000001 144.0096875 65.12734375 121.17640625 63.08234374999999 132.23499999999999 60.300000000000004 139.02671875 57.23234375 139.02671875 52.369375 139.02671875 48.21828125 121.88734374999999 46.555 97.72937499999999 44.133593749999996 110.43203125 40.537343750000005 118.48640625 36.508281249999996 118.48640625 31.319531249999997 118.48640625 26.827968750000004 105.08296874999999 24.6659375 85.57296875 23.307812499999997 90.91703125000001 21.59859375 94.0809375 19.757031249999997 94.0809375 15.265281250000001 94.0809375 11.62303125 75.35437499999999 11.62303125 52.252968749999994 11.62303125 29.151406249999997 15.265281250000001 10.424796875 19.757031249999997 10.424796875 22.16828125 10.424796875 24.325156250000003 15.835625 25.820625 24.41046875 28.216562500000002 9.615765625 32.10828125 0 36.508281249999996 0 41.73265625 0 46.260000000000005 13.599171875 48.40171875 33.3459375 50.49734375 18.973906250000002 53.67671875 9.81159375 57.23765625 9.81159375 62.2278125 9.81159375 66.47046875 27.8321875 68.04249999999999 52.969375 70.99781250000001 40.0809375 75.27578125 31.9959375 80.011875 31.9959375 84.7478125 31.9959375 89.0259375 40.086406249999996 91.97625000000001 52.969375 93.55328125 27.8321875 97.790625 9.81159375 102.7809375 9.81159375 106.33671874999999 9.81159375 109.51109375 18.973906250000002 111.61703125000001 33.3459375 113.7534375 13.599171875 118.28078124999999 0 123.50515625 0 127.89015624999999 0 131.796875 9.6209375 134.1928125 24.41046875ZM0 48.139062499999994C0 37.812031250000004 2.0653125 29.438125 4.6138593750000005 29.438125 7.16240625 29.438125 9.227718750000001 37.812031250000004 9.227718750000001 48.139062499999994 9.227718750000001 58.465625 7.16240625 66.8396875 4.6138593750000005 66.8396875 2.0653125 66.8396875 0 58.465625 0 48.139062499999994ZM150.77234375 48.139062499999994C150.77234375 37.812031250000004 152.83734375 29.438125 155.3859375 29.438125 157.934375 29.438125 160 37.812031250000004 160 48.139062499999994 160 58.465625 157.934375 66.8396875 155.3859375 66.8396875 152.83734375 66.8396875 150.77234375 58.465625 150.77234375 48.139062499999994Z" class="hierarchical-1:primary "/></g>
  <g id="Ultralight-L" transform="matrix(1,0,0,1,479.711,1440.77)">

  <path d="M134.1928125 24.41046875C135.673125 15.83046875 137.84515625 10.435140624999999 140.25125 10.424796875H140.2565625C144.74328125 10.440265625 148.3803125 29.151406249999997 148.3803125 52.252968749999994 148.3803125 75.35437499999999 144.73796875 94.0809375 140.24625 94.0809375 138.40484375 94.0809375 136.70578125 90.90140625000001 135.3375 85.57296875 133.17546875 105.07765624999999 128.68875 118.48640625 123.49515625000001 118.48640625 119.47640625 118.48640625 115.8696875 110.43203125 113.44843750000001 97.72937499999999 111.79500000000002 121.88734374999999 107.6340625 139.02671875 102.770625 139.02671875 99.71859375 139.02671875 96.9359375 132.23499999999999 94.8759375 121.17640625 92.39859375 144.0046875 86.6759375 160 80.0015625 160 73.3275 160 67.59484375000001 144.0096875 65.12734375 121.17640625 63.08234374999999 132.23499999999999 60.300000000000004 139.02671875 57.23234375 139.02671875 52.369375 139.02671875 48.21828125 121.88734374999999 46.555 97.72937499999999 44.133593749999996 110.43203125 40.537343750000005 118.48640625 36.508281249999996 118.48640625 31.319531249999997 118.48640625 26.827968750000004 105.08296874999999 24.6659375 85.57296875 23.307812499999997 90.91703125000001 21.59859375 94.0809375 19.757031249999997 94.0809375 15.265281250000001 94.0809375 11.62303125 75.35437499999999 11.62303125 52.252968749999994 11.62303125 29.151406249999997 15.265281250000001 10.424796875 19.757031249999997 10.424796875 22.16828125 10.424796875 24.325156250000003 15.835625 25.820625 24.41046875 28.216562500000002 9.615765625 32.10828125 0 36.508281249999996 0 41.73265625 0 46.260000000000005 13.599171875 48.40171875 33.3459375 50.49734375 18.973906250000002 53.67671875 9.81159375 57.23765625 9.81159375 62.2278125 9.81159375 66.47046875 27.8321875 68.04249999999999 52.969375 70.99781250000001 40.0809375 75.27578125 31.9959375 80.011875 31.9959375 84.7478125 31.9959375 89.0259375 40.086406249999996 91.97625000000001 52.969375 93.55328125 27.8321875 97.790625 9.81159375 102.7809375 9.81159375 106.33671874999999 9.81159375 109.51109375 18.973906250000002 111.61703125000001 33.3459375 113.7534375 13.599171875 118.28078124999999 0 123.50515625 0 127.89015624999999 0 131.796875 9.6209375 134.1928125 24.41046875ZM0 48.139062499999994C0 37.812031250000004 2.0653125 29.438125 4.6138593750000005 29.438125 7.16240625 29.438125 9.227718750000001 37.812031250000004 9.227718750000001 48.139062499999994 9.227718750000001 58.465625 7.16240625 66.8396875 4.6138593750000005 66.8396875 2.0653125 66.8396875 0 58.465625 0 48.139062499999994ZM150.77234375 48.139062499999994C150.77234375 37.812031250000004 152.83734375 29.438125 155.3859375 29.438125 157.934375 29.438125 160 37.812031250000004 160 48.139062499999994 160 58.465625 157.934375 66.8396875 155.3859375 66.8396875 152.83734375 66.8396875 150.77234375 58.465625 150.77234375 48.139062499999994Z" class="hierarchical-1:primary "/></g>
  <g id="Black-M" transform="matrix(1,0,0,1,2869.3999999999996,1026.77)">

  <path d="M107.35425 19.528375C108.5385 12.664375 110.276125 8.3481125 112.201 8.3398375H112.20525C115.794625 8.3522125 118.70425 23.321125 118.70425 41.802375 118.70425 60.2835 115.790375 75.26475 112.197 75.26475 110.723875 75.26475 109.364625 72.721125 108.27 68.458375 106.540375 84.062125 102.951 94.789125 98.796125 94.789125 95.581125 94.789125 92.69575 88.345625 90.75875 78.1835 89.436 97.509875 86.10725 111.221375 82.2165 111.221375 79.774875 111.221375 77.54875 105.788 75.90075 96.941125 73.918875 115.20375 69.34075 128 64.00125 128 58.662 128 54.075875 115.20775 52.101875 96.941125 50.465875 105.788 48.24 111.221375 45.785875 111.221375 41.8955 111.221375 38.574625 97.509875 37.244 78.1835 35.306875 88.345625 32.429875 94.789125 29.206625 94.789125 25.055625 94.789125 21.462375 84.066375 19.73275 68.458375 18.64625 72.733625 17.278875 75.26475 15.805625 75.26475 12.212225 75.26475 9.298425 60.2835 9.298425 41.802375 9.298425 23.321125 12.212225 8.3398375 15.805625 8.3398375 17.734625 8.3398375 19.460125 12.6685 20.6565 19.528375 22.57325 7.6926125 25.686625 0 29.206625 0 33.386125 0 37.008 10.8793375 38.721375 26.67675 40.397875 15.179125 42.941375 7.849275 45.790125 7.849275 49.78225 7.849275 53.176375 22.26575 54.434 42.3755 56.79825 32.06475 60.220625 25.59675 64.0095 25.59675 67.79825 25.59675 71.22075 32.069125 73.581 42.3755 74.842625 22.26575 78.2325 7.849275 82.22475 7.849275 85.069375 7.849275 87.608875 15.179125 89.293625 26.67675 91.00275 10.8793375 94.624625 0 98.804125 0 102.312125 0 105.4375 7.69675 107.35425 19.528375ZM0 38.51125C0 30.249625 1.65225 23.5505 3.6910875 23.5505 5.729925 23.5505 7.382175 30.249625 7.382175 38.51125 7.382175 46.7725 5.729925 53.47175 3.6910875 53.47175 1.65225 53.47175 0 46.7725 0 38.51125ZM120.617875 38.51125C120.617875 30.249625 122.269875 23.5505 124.30875 23.5505 126.3475 23.5505 128 30.249625 128 38.51125 128 46.7725 126.3475 53.47175 124.30875 53.47175 122.269875 53.47175 120.617875 46.7725 120.617875 38.51125Z" class="hierarchical-1:primary "/></g>
  <g id="Regular-M" transform="matrix(1,0,0,1,1385.845,1026.77)">

  <path d="M107.35425 19.528375C108.5385 12.664375 110.276125 8.3481125 112.201 8.3398375H112.20525C115.794625 8.3522125 118.70425 23.321125 118.70425 41.802375 118.70425 60.2835 115.790375 75.26475 112.197 75.26475 110.723875 75.26475 109.364625 72.721125 108.27 68.458375 106.540375 84.062125 102.951 94.789125 98.796125 94.789125 95.581125 94.789125 92.69575 88.345625 90.75875 78.1835 89.436 97.509875 86.10725 111.221375 82.2165 111.221375 79.774875 111.221375 77.54875 105.788 75.90075 96.941125 73.918875 115.20375 69.34075 128 64.00125 128 58.662 128 54.075875 115.20775 52.101875 96.941125 50.465875 105.788 48.24 111.221375 45.785875 111.221375 41.8955 111.221375 38.574625 97.509875 37.244 78.1835 35.306875 88.345625 32.429875 94.789125 29.206625 94.789125 25.055625 94.789125 21.462375 84.066375 19.73275 68.458375 18.64625 72.733625 17.278875 75.26475 15.805625 75.26475 12.212225 75.26475 9.298425 60.2835 9.298425 41.802375 9.298425 23.321125 12.212225 8.3398375 15.805625 8.3398375 17.734625 8.3398375 19.460125 12.6685 20.6565 19.528375 22.57325 7.6926125 25.686625 0 29.206625 0 33.386125 0 37.008 10.8793375 38.721375 26.67675 40.397875 15.179125 42.941375 7.849275 45.790125 7.849275 49.78225 7.849275 53.176375 22.26575 54.434 42.3755 56.79825 32.06475 60.220625 25.59675 64.0095 25.59675 67.79825 25.59675 71.22075 32.069125 73.581 42.3755 74.842625 22.26575 78.2325 7.849275 82.22475 7.849275 85.069375 7.849275 87.608875 15.179125 89.293625 26.67675 91.00275 10.8793375 94.624625 0 98.804125 0 102.312125 0 105.4375 7.69675 107.35425 19.528375ZM0 38.51125C0 30.249625 1.65225 23.5505 3.6910875 23.5505 5.729925 23.5505 7.382175 30.249625 7.382175 38.51125 7.382175 46.7725 5.729925 53.47175 3.6910875 53.47175 1.65225 53.47175 0 46.7725 0 38.51125ZM120.617875 38.51125C120.617875 30.249625 122.269875 23.5505 124.30875 23.5505 126.3475 23.5505 128 30.249625 128 38.51125 128 46.7725 126.3475 53.47175 124.30875 53.47175 122.269875 53.47175 120.617875 46.7725 120.617875 38.51125Z" class="hierarchical-1:primary "/></g>
  <g id="Ultralight-M" transform="matrix(1,0,0,1,495.711,1026.77)">

  <path d="M107.35425 19.528375C108.5385 12.664375 110.276125 8.3481125 112.201 8.3398375H112.20525C115.794625 8.3522125 118.70425 23.321125 118.70425 41.802375 118.70425 60.2835 115.790375 75.26475 112.197 75.26475 110.723875 75.26475 109.364625 72.721125 108.27 68.458375 106.540375 84.062125 102.951 94.789125 98.796125 94.789125 95.581125 94.789125 92.69575 88.345625 90.75875 78.1835 89.436 97.509875 86.10725 111.221375 82.2165 111.221375 79.774875 111.221375 77.54875 105.788 75.90075 96.941125 73.918875 115.20375 69.34075 128 64.00125 128 58.662 128 54.075875 115.20775 52.101875 96.941125 50.465875 105.788 48.24 111.221375 45.785875 111.221375 41.8955 111.221375 38.574625 97.509875 37.244 78.1835 35.306875 88.345625 32.429875 94.789125 29.206625 94.789125 25.055625 94.789125 21.462375 84.066375 19.73275 68.458375 18.64625 72.733625 17.278875 75.26475 15.805625 75.26475 12.212225 75.26475 9.298425 60.2835 9.298425 41.802375 9.298425 23.321125 12.212225 8.3398375 15.805625 8.3398375 17.734625 8.3398375 19.460125 12.6685 20.6565 19.528375 22.57325 7.6926125 25.686625 0 29.206625 0 33.386125 0 37.008 10.8793375 38.721375 26.67675 40.397875 15.179125 42.941375 7.849275 45.790125 7.849275 49.78225 7.849275 53.176375 22.26575 54.434 42.3755 56.79825 32.06475 60.220625 25.59675 64.0095 25.59675 67.79825 25.59675 71.22075 32.069125 73.581 42.3755 74.842625 22.26575 78.2325 7.849275 82.22475 7.849275 85.069375 7.849275 87.608875 15.179125 89.293625 26.67675 91.00275 10.8793375 94.624625 0 98.804125 0 102.312125 0 105.4375 7.69675 107.35425 19.528375ZM0 38.51125C0 30.249625 1.65225 23.5505 3.6910875 23.5505 5.729925 23.5505 7.382175 30.249625 7.382175 38.51125 7.382175 46.7725 5.729925 53.47175 3.6910875 53.47175 1.65225 53.47175 0 46.7725 0 38.51125ZM120.617875 38.51125C120.617875 30.249625 122.269875 23.5505 124.30875 23.5505 126.3475 23.5505 128 30.249625 128 38.51125 128 46.7725 126.3475 53.47175 124.30875 53.47175 122.269875 53.47175 120.617875 46.7725 120.617875 38.51125Z" class="hierarchical-1:primary "/></g>
  <g id="Black-S" transform="matrix(1,0,0,1,2885.3999999999996,612.7705000000001)">

  <path d="M80.5156875 14.646281250000001C81.403875 9.49828125 82.70709375 6.261084374999999 84.15074999999999 6.254878124999999H84.15393750000001C86.84596875 6.264159375 89.0281875 17.49084375 89.0281875 31.35178125 89.0281875 45.212624999999996 86.84278125 56.44856250000001 84.14775 56.44856250000001 83.04290625 56.44856250000001 82.02346875 54.54084375 81.2025 51.343781250000006 79.90528125 63.04659375 77.21324999999999 71.09184375 74.09709375 71.09184375 71.68584375 71.09184375 69.52181250000001 66.25921875 68.0690625 58.637625 67.077 73.13240625 64.58043749999999 83.41603125 61.662375 83.41603125 59.83115624999999 83.41603125 58.1615625 79.341 56.9255625 72.70584375 55.439156249999996 86.4028125 52.005562499999996 96 48.0009375 96 43.9965 96 40.556906250000004 86.4058125 39.07640625 72.70584375 37.84940625 79.341 36.18 83.41603125 34.339406249999996 83.41603125 31.421625 83.41603125 28.930968749999998 73.13240625 27.933 58.637625 26.48015625 66.25921875 24.32240625 71.09184375 21.90496875 71.09184375 18.79171875 71.09184375 16.09678125 63.049781249999995 14.7995625 51.343781250000006 13.9846875 54.55021875 12.95915625 56.44856250000001 11.85421875 56.44856250000001 9.15916875 56.44856250000001 6.9738187499999995 45.212624999999996 6.9738187499999995 31.35178125 6.9738187499999995 17.49084375 9.15916875 6.254878124999999 11.85421875 6.254878124999999 13.300968750000001 6.254878124999999 14.59509375 9.501375 15.492375000000001 14.646281250000001 16.9299375 5.769459375 19.26496875 0 21.90496875 0 25.03959375 0 27.756 8.159503125 29.041031250000003 20.0075625 30.29840625 11.384343750000001 32.20603125 5.88695625 34.342593750000006 5.88695625 37.3366875 5.88695625 39.88228125 16.6993125 40.8255 31.781625000000002 42.598687500000004 24.048562499999996 45.16546875 19.1975625 48.007125 19.1975625 50.8486875 19.1975625 53.41556249999999 24.05184375 55.18575 31.781625000000002 56.13196875 16.6993125 58.674375 5.88695625 61.6685625 5.88695625 63.80203125 5.88695625 65.70665625 11.384343750000001 66.97021875 20.0075625 68.25206250000001 8.159503125 70.96846875 0 74.10309375 0 76.73409375 0 79.078125 5.772562499999999 80.5156875 14.646281250000001ZM0 28.8834375C0 22.68721875 1.2391874999999999 17.662875 2.768315625 17.662875 4.297443749999999 17.662875 5.53663125 22.68721875 5.53663125 28.8834375 5.53663125 35.079375 4.297443749999999 40.103812500000004 2.768315625 40.103812500000004 1.2391874999999999 40.103812500000004 0 35.079375 0 28.8834375ZM90.46340624999999 28.8834375C90.46340624999999 22.68721875 91.70240625 17.662875 93.2315625 17.662875 94.760625 17.662875 96 22.68721875 96 28.8834375 96 35.079375 94.760625 40.103812500000004 93.2315625 40.103812500000004 91.70240625 40.103812500000004 90.46340624999999 35.079375 90.46340624999999 28.8834375Z" class="hierarchical-1:primary "/></g>
  <g id="Regular-S" transform="matrix(1,0,0,1,1401.845,612.7705000000001)">

  <path d="M80.5156875 14.646281250000001C81.403875 9.49828125 82.70709375 6.261084374999999 84.15074999999999 6.254878124999999H84.15393750000001C86.84596875 6.264159375 89.0281875 17.49084375 89.0281875 31.35178125 89.0281875 45.212624999999996 86.84278125 56.44856250000001 84.14775 56.44856250000001 83.04290625 56.44856250000001 82.02346875 54.54084375 81.2025 51.343781250000006 79.90528125 63.04659375 77.21324999999999 71.09184375 74.09709375 71.09184375 71.68584375 71.09184375 69.52181250000001 66.25921875 68.0690625 58.637625 67.077 73.13240625 64.58043749999999 83.41603125 61.662375 83.41603125 59.83115624999999 83.41603125 58.1615625 79.341 56.9255625 72.70584375 55.439156249999996 86.4028125 52.005562499999996 96 48.0009375 96 43.9965 96 40.556906250000004 86.4058125 39.07640625 72.70584375 37.84940625 79.341 36.18 83.41603125 34.339406249999996 83.41603125 31.421625 83.41603125 28.930968749999998 73.13240625 27.933 58.637625 26.48015625 66.25921875 24.32240625 71.09184375 21.90496875 71.09184375 18.79171875 71.09184375 16.09678125 63.049781249999995 14.7995625 51.343781250000006 13.9846875 54.55021875 12.95915625 56.44856250000001 11.85421875 56.44856250000001 9.15916875 56.44856250000001 6.9738187499999995 45.212624999999996 6.9738187499999995 31.35178125 6.9738187499999995 17.49084375 9.15916875 6.254878124999999 11.85421875 6.254878124999999 13.300968750000001 6.254878124999999 14.59509375 9.501375 15.492375000000001 14.646281250000001 16.9299375 5.769459375 19.26496875 0 21.90496875 0 25.03959375 0 27.756 8.159503125 29.041031250000003 20.0075625 30.29840625 11.384343750000001 32.20603125 5.88695625 34.342593750000006 5.88695625 37.3366875 5.88695625 39.88228125 16.6993125 40.8255 31.781625000000002 42.598687500000004 24.048562499999996 45.16546875 19.1975625 48.007125 19.1975625 50.8486875 19.1975625 53.41556249999999 24.05184375 55.18575 31.781625000000002 56.13196875 16.6993125 58.674375 5.88695625 61.6685625 5.88695625 63.80203125 5.88695625 65.70665625 11.384343750000001 66.97021875 20.0075625 68.25206250000001 8.159503125 70.96846875 0 74.10309375 0 76.73409375 0 79.078125 5.772562499999999 80.5156875 14.646281250000001ZM0 28.8834375C0 22.68721875 1.2391874999999999 17.662875 2.768315625 17.662875 4.297443749999999 17.662875 5.53663125 22.68721875 5.53663125 28.8834375 5.53663125 35.079375 4.297443749999999 40.103812500000004 2.768315625 40.103812500000004 1.2391874999999999 40.103812500000004 0 35.079375 0 28.8834375ZM90.46340624999999 28.8834375C90.46340624999999 22.68721875 91.70240625 17.662875 93.2315625 17.662875 94.760625 17.662875 96 22.68721875 96 28.8834375 96 35.079375 94.760625 40.103812500000004 93.2315625 40.103812500000004 91.70240625 40.103812500000004 90.46340624999999 35.079375 90.46340624999999 28.8834375Z" class="hierarchical-1:primary "/></g>
  <g id="Ultralight-S" transform="matrix(1,0,0,1,511.711,612.7705000000001)">

  <path d="M80.5156875 14.646281250000001C81.403875 9.49828125 82.70709375 6.261084374999999 84.15074999999999 6.254878124999999H84.15393750000001C86.84596875 6.264159375 89.0281875 17.49084375 89.0281875 31.35178125 89.0281875 45.212624999999996 86.84278125 56.44856250000001 84.14775 56.44856250000001 83.04290625 56.44856250000001 82.02346875 54.54084375 81.2025 51.343781250000006 79.90528125 63.04659375 77.21324999999999 71.09184375 74.09709375 71.09184375 71.68584375 71.09184375 69.52181250000001 66.25921875 68.0690625 58.637625 67.077 73.13240625 64.58043749999999 83.41603125 61.662375 83.41603125 59.83115624999999 83.41603125 58.1615625 79.341 56.9255625 72.70584375 55.439156249999996 86.4028125 52.005562499999996 96 48.0009375 96 43.9965 96 40.556906250000004 86.4058125 39.07640625 72.70584375 37.84940625 79.341 36.18 83.41603125 34.339406249999996 83.41603125 31.421625 83.41603125 28.930968749999998 73.13240625 27.933 58.637625 26.48015625 66.25921875 24.32240625 71.09184375 21.90496875 71.09184375 18.79171875 71.09184375 16.09678125 63.049781249999995 14.7995625 51.343781250000006 13.9846875 54.55021875 12.95915625 56.44856250000001 11.85421875 56.44856250000001 9.15916875 56.44856250000001 6.9738187499999995 45.212624999999996 6.9738187499999995 31.35178125 6.9738187499999995 17.49084375 9.15916875 6.254878124999999 11.85421875 6.254878124999999 13.300968750000001 6.254878124999999 14.59509375 9.501375 15.492375000000001 14.646281250000001 16.9299375 5.769459375 19.26496875 0 21.90496875 0 25.03959375 0 27.756 8.159503125 29.041031250000003 20.0075625 30.29840625 11.384343750000001 32.20603125 5.88695625 34.342593750000006 5.88695625 37.3366875 5.88695625 39.88228125 16.6993125 40.8255 31.781625000000002 42.598687500000004 24.048562499999996 45.16546875 19.1975625 48.007125 19.1975625 50.8486875 19.1975625 53.41556249999999 24.05184375 55.18575 31.781625000000002 56.13196875 16.6993125 58.674375 5.88695625 61.6685625 5.88695625 63.80203125 5.88695625 65.70665625 11.384343750000001 66.97021875 20.0075625 68.25206250000001 8.159503125 70.96846875 0 74.10309375 0 76.73409375 0 79.078125 5.772562499999999 80.5156875 14.646281250000001ZM0 28.8834375C0 22.68721875 1.2391874999999999 17.662875 2.768315625 17.662875 4.297443749999999 17.662875 5.53663125 22.68721875 5.53663125 28.8834375 5.53663125 35.079375 4.297443749999999 40.103812500000004 2.768315625 40.103812500000004 1.2391874999999999 40.103812500000004 0 35.079375 0 28.8834375ZM90.46340624999999 28.8834375C90.46340624999999 22.68721875 91.70240625 17.662875 93.2315625 17.662875 94.760625 17.662875 96 22.68721875 96 28.8834375 96 35.079375 94.760625 40.103812500000004 93.2315625 40.103812500000004 91.70240625 40.103812500000004 90.46340624999999 35.079375 90.46340624999999 28.8834375Z" class="hierarchical-1:primary "/></g>
 </g>
</svg>