<svg xmlns="http://www.w3.org/2000/svg" xmlns:xlink="http://www.w3.org/1999/xlink" version="1.1" width="3300" height="2200">
 <!--glyph: "", point size: 100.0, font version: "17.1d1e1", template writer version: "65.1"-->
<style>

.hierarchical-1:primary {fill:#262626;}
.SFSymbolsPreview262626 {fill:#262626;}
</style>
 <g id="Notes">
  <rect height="2200" id="artboard" style="fill:white;opacity:1" width="3300" x="0" y="0"/>
  <line style="fill:none;stroke:black;opacity:1;stroke-width:0.5;" x1="263" x2="3036" y1="292" y2="292"/>
  <text style="stroke:none;fill:black;font-family:sans-serif;font-size:13;font-weight:bold;" transform="matrix(1 0 0 1 263 322)">Weight/Scale Variations</text>
  <text style="stroke:none;fill:black;font-family:sans-serif;font-size:13;text-anchor:middle;" transform="matrix(1 0 0 1 559.711 322)">Ultralight</text>
  <text style="stroke:none;fill:black;font-family:sans-serif;font-size:13;text-anchor:middle;" transform="matrix(1 0 0 1 856.422 322)">Thin</text>
  <text style="stroke:none;fill:black;font-family:sans-serif;font-size:13;text-anchor:middle;" transform="matrix(1 0 0 1 1153.13 322)">Light</text>
  <text style="stroke:none;fill:black;font-family:sans-serif;font-size:13;text-anchor:middle;" transform="matrix(1 0 0 1 1449.84 322)">Regular</text>
  <text style="stroke:none;fill:black;font-family:sans-serif;font-size:13;text-anchor:middle;" transform="matrix(1 0 0 1 1746.56 322)">Medium</text>
  <text style="stroke:none;fill:black;font-family:sans-serif;font-size:13;text-anchor:middle;" transform="matrix(1 0 0 1 2043.27 322)">Semibold</text>
  <text style="stroke:none;fill:black;font-family:sans-serif;font-size:13;text-anchor:middle;" transform="matrix(1 0 0 1 2339.98 322)">Bold</text>
  <text style="stroke:none;fill:black;font-family:sans-serif;font-size:13;text-anchor:middle;" transform="matrix(1 0 0 1 2636.69 322)">Heavy</text>
  <text style="stroke:none;fill:black;font-family:sans-serif;font-size:13;text-anchor:middle;" transform="matrix(1 0 0 1 2933.4 322)">Black</text>
  <line style="fill:none;stroke:black;opacity:1;stroke-width:0.5;" x1="263" x2="3036" y1="1903" y2="1903"/>
  <g transform="matrix(1 0 0 1 263 1933)">
   <path d="M9.24805 0.830078Q10.8691 0.830078 12.2949 0.214844Q13.7207-0.400391 14.8096-1.49414Q15.8984-2.58789 16.5186-4.01367Q17.1387-5.43945 17.1387-7.05078Q17.1387-8.66211 16.5186-10.0879Q15.8984-11.5137 14.8047-12.6074Q13.7109-13.7012 12.2852-14.3164Q10.8594-14.9316 9.23828-14.9316Q7.62695-14.9316 6.20117-14.3164Q4.77539-13.7012 3.69141-12.6074Q2.60742-11.5137 1.9873-10.0879Q1.36719-8.66211 1.36719-7.05078Q1.36719-5.43945 1.9873-4.01367Q2.60742-2.58789 3.69629-1.49414Q4.78516-0.400391 6.21094 0.214844Q7.63672 0.830078 9.24805 0.830078ZM9.24805-0.654297Q7.91992-0.654297 6.7627-1.14746Q5.60547-1.64062 4.73145-2.51953Q3.85742-3.39844 3.36426-4.56055Q2.87109-5.72266 2.87109-7.05078Q2.87109-8.37891 3.35938-9.54102Q3.84766-10.7031 4.72168-11.582Q5.5957-12.4609 6.75293-12.9541Q7.91016-13.4473 9.23828-13.4473Q10.5762-13.4473 11.7334-12.9541Q12.8906-12.4609 13.7695-11.582Q14.6484-10.7031 15.1465-9.54102Q15.6445-8.37891 15.6445-7.05078Q15.6445-5.72266 15.1514-4.56055Q14.6582-3.39844 13.7842-2.51953Q12.9102-1.64062 11.748-1.14746Q10.5859-0.654297 9.24805-0.654297ZM5.6543-7.05078Q5.6543-6.72852 5.85938-6.52832Q6.06445-6.32812 6.40625-6.32812L8.51562-6.32812L8.51562-4.20898Q8.51562-3.88672 8.71094-3.67676Q8.90625-3.4668 9.23828-3.4668Q9.56055-3.4668 9.77051-3.67676Q9.98047-3.88672 9.98047-4.20898L9.98047-6.32812L12.0898-6.32812Q12.4219-6.32812 12.627-6.52832Q12.832-6.72852 12.832-7.05078Q12.832-7.38281 12.627-7.58789Q12.4219-7.79297 12.0898-7.79297L9.98047-7.79297L9.98047-9.90234Q9.98047-10.2344 9.77051-10.4443Q9.56055-10.6543 9.23828-10.6543Q8.90625-10.6543 8.71094-10.4443Q8.51562-10.2344 8.51562-9.90234L8.51562-7.79297L6.40625-7.79297Q6.06445-7.79297 5.85938-7.58789Q5.6543-7.38281 5.6543-7.05078Z"/>
  </g>
  <g transform="matrix(1 0 0 1 281.867 1933)">
   <path d="M11.709 2.91016Q13.75 2.91016 15.5518 2.12891Q17.3535 1.34766 18.7305-0.0292969Q20.1074-1.40625 20.8887-3.20801Q21.6699-5.00977 21.6699-7.05078Q21.6699-9.0918 20.8887-10.8936Q20.1074-12.6953 18.7305-14.0723Q17.3535-15.4492 15.5469-16.2305Q13.7402-17.0117 11.6992-17.0117Q9.6582-17.0117 7.85645-16.2305Q6.05469-15.4492 4.68262-14.0723Q3.31055-12.6953 2.5293-10.8936Q1.74805-9.0918 1.74805-7.05078Q1.74805-5.00977 2.5293-3.20801Q3.31055-1.40625 4.6875-0.0292969Q6.06445 1.34766 7.86621 2.12891Q9.66797 2.91016 11.709 2.91016ZM11.709 1.25Q9.98047 1.25 8.47656 0.605469Q6.97266-0.0390625 5.83496-1.17676Q4.69727-2.31445 4.05762-3.81836Q3.41797-5.32227 3.41797-7.05078Q3.41797-8.7793 4.05762-10.2832Q4.69727-11.7871 5.83008-12.9297Q6.96289-14.0723 8.4668-14.7119Q9.9707-15.3516 11.6992-15.3516Q13.4277-15.3516 14.9316-14.7119Q16.4355-14.0723 17.5781-12.9297Q18.7207-11.7871 19.3652-10.2832Q20.0098-8.7793 20.0098-7.05078Q20.0098-5.32227 19.3701-3.81836Q18.7305-2.31445 17.5928-1.17676Q16.4551-0.0390625 14.9463 0.605469Q13.4375 1.25 11.709 1.25ZM7.17773-7.05078Q7.17773-6.69922 7.41211-6.47461Q7.64648-6.25 8.01758-6.25L10.8887-6.25L10.8887-3.36914Q10.8887-2.99805 11.1133-2.76855Q11.3379-2.53906 11.6895-2.53906Q12.0605-2.53906 12.29-2.76855Q12.5195-2.99805 12.5195-3.36914L12.5195-6.25L15.4004-6.25Q15.7715-6.25 16.001-6.47461Q16.2305-6.69922 16.2305-7.05078Q16.2305-7.42188 16.001-7.65137Q15.7715-7.88086 15.4004-7.88086L12.5195-7.88086L12.5195-10.752Q12.5195-11.1328 12.29-11.3623Q12.0605-11.5918 11.6895-11.5918Q11.3379-11.5918 11.1133-11.3574Q10.8887-11.123 10.8887-10.752L10.8887-7.88086L8.01758-7.88086Q7.63672-7.88086 7.40723-7.65137Q7.17773-7.42188 7.17773-7.05078Z"/>
  </g>
  <g transform="matrix(1 0 0 1 305.646 1933)">
   <path d="M14.9707 5.66406Q17.0605 5.66406 18.96 5.01465Q20.8594 4.36523 22.4512 3.19336Q24.043 2.02148 25.2197 0.429688Q26.3965-1.16211 27.0459-3.06641Q27.6953-4.9707 27.6953-7.05078Q27.6953-9.14062 27.0459-11.04Q26.3965-12.9395 25.2197-14.5312Q24.043-16.123 22.4512-17.2998Q20.8594-18.4766 18.9551-19.126Q17.0508-19.7754 14.9609-19.7754Q12.8711-19.7754 10.9717-19.126Q9.07227-18.4766 7.48535-17.2998Q5.89844-16.123 4.72168-14.5312Q3.54492-12.9395 2.90039-11.04Q2.25586-9.14062 2.25586-7.05078Q2.25586-4.9707 2.90527-3.06641Q3.55469-1.16211 4.72656 0.429688Q5.89844 2.02148 7.49023 3.19336Q9.08203 4.36523 10.9814 5.01465Q12.8809 5.66406 14.9707 5.66406ZM14.9707 3.84766Q13.1641 3.84766 11.5283 3.2959Q9.89258 2.74414 8.53516 1.74805Q7.17773 0.751953 6.17676-0.610352Q5.17578-1.97266 4.62891-3.6084Q4.08203-5.24414 4.08203-7.05078Q4.08203-8.86719 4.62891-10.5029Q5.17578-12.1387 6.17188-13.501Q7.16797-14.8633 8.52539-15.8594Q9.88281-16.8555 11.5186-17.4023Q13.1543-17.9492 14.9609-17.9492Q16.7773-17.9492 18.4131-17.4023Q20.0488-16.8555 21.4111-15.8594Q22.7734-14.8633 23.7695-13.501Q24.7656-12.1387 25.3174-10.5029Q25.8691-8.86719 25.8691-7.05078Q25.8789-5.24414 25.332-3.6084Q24.7852-1.97266 23.7842-0.610352Q22.7832 0.751953 21.4209 1.74805Q20.0586 2.74414 18.4229 3.2959Q16.7871 3.84766 14.9707 3.84766ZM9.19922-7.05078Q9.19922-6.66992 9.45801-6.4209Q9.7168-6.17188 10.1172-6.17188L14.0625-6.17188L14.0625-2.2168Q14.0625-1.81641 14.3115-1.55762Q14.5605-1.29883 14.9512-1.29883Q15.3516-1.29883 15.6104-1.55273Q15.8691-1.80664 15.8691-2.2168L15.8691-6.17188L19.8242-6.17188Q20.2246-6.17188 20.4785-6.4209Q20.7324-6.66992 20.7324-7.05078Q20.7324-7.46094 20.4785-7.71484Q20.2246-7.96875 19.8242-7.96875L15.8691-7.96875L15.8691-11.9141Q15.8691-12.3242 15.6104-12.583Q15.3516-12.8418 14.9512-12.8418Q14.5605-12.8418 14.3115-12.583Q14.0625-12.3242 14.0625-11.9141L14.0625-7.96875L10.1172-7.96875Q9.70703-7.96875 9.45312-7.71484Q9.19922-7.46094 9.19922-7.05078Z"/>
  </g>
  <text style="stroke:none;fill:black;font-family:sans-serif;font-size:13;font-weight:bold;" transform="matrix(1 0 0 1 263 1953)">Design Variations</text>
  <text style="stroke:none;fill:black;font-family:sans-serif;font-size:13;" transform="matrix(1 0 0 1 263 1971)">Symbols are supported in up to nine weights and three scales.</text>
  <text style="stroke:none;fill:black;font-family:sans-serif;font-size:13;" transform="matrix(1 0 0 1 263 1989)">For optimal layout with text and other symbols, vertically align</text>
  <text style="stroke:none;fill:black;font-family:sans-serif;font-size:13;" transform="matrix(1 0 0 1 263 2007)">symbols with the adjacent text.</text>
  <line style="fill:none;stroke:#00AEEF;stroke-width:0.5;opacity:1.0;" x1="776" x2="776" y1="1919" y2="1933"/>
  <g transform="matrix(1 0 0 1 776 1933)">
   <path d="M3.31055 0.15625Q3.70117 0.15625 3.91602-0.00976562Q4.13086-0.175781 4.26758-0.585938L5.52734-4.0332L11.2891-4.0332L12.5488-0.585938Q12.6855-0.175781 12.9004-0.00976562Q13.1152 0.15625 13.4961 0.15625Q13.8867 0.15625 14.1162-0.0585938Q14.3457-0.273438 14.3457-0.644531Q14.3457-0.869141 14.2383-1.17188L9.6582-13.3691Q9.48242-13.8184 9.17969-14.043Q8.87695-14.2676 8.4082-14.2676Q7.5-14.2676 7.17773-13.3789L2.59766-1.16211Q2.49023-0.859375 2.49023-0.634766Q2.49023-0.263672 2.70996-0.0537109Q2.92969 0.15625 3.31055 0.15625ZM6.00586-5.51758L8.37891-12.0898L8.42773-12.0898L10.8008-5.51758Z"/>
  </g>
  <line style="fill:none;stroke:#00AEEF;stroke-width:0.5;opacity:1.0;" x1="793.197" x2="793.197" y1="1919" y2="1933"/>
  <text style="stroke:none;fill:black;font-family:sans-serif;font-size:13;font-weight:bold;" transform="matrix(1 0 0 1 776 1953)">Margins</text>
  <text style="stroke:none;fill:black;font-family:sans-serif;font-size:13;" transform="matrix(1 0 0 1 776 1971)">Leading and trailing margins on the left and right side of each symbol</text>
  <text style="stroke:none;fill:black;font-family:sans-serif;font-size:13;" transform="matrix(1 0 0 1 776 1989)">can be adjusted by modifying the x-location of the margin guidelines.</text>
  <text style="stroke:none;fill:black;font-family:sans-serif;font-size:13;" transform="matrix(1 0 0 1 776 2007)">Modifications are automatically applied proportionally to all</text>
  <text style="stroke:none;fill:black;font-family:sans-serif;font-size:13;" transform="matrix(1 0 0 1 776 2025)">scales and weights.</text>
  <g transform="matrix(1 0 0 1 1289 1933)">
   <path d="M2.8418 1.86523L4.54102 3.57422Q5.18555 4.22852 5.90332 4.17969Q6.62109 4.13086 7.31445 3.35938L18.0078-8.42773L17.041-9.4043L6.42578 2.27539Q6.16211 2.57812 5.89355 2.61719Q5.625 2.65625 5.27344 2.30469L4.10156 1.14258Q3.75 0.791016 3.79395 0.522461Q3.83789 0.253906 4.14062-0.0195312L15.6152-10.8203L14.6387-11.7871L3.04688-0.898438Q2.30469-0.214844 2.25098 0.498047Q2.19727 1.21094 2.8418 1.86523ZM9.25781-16.3281Q8.94531-16.0254 8.90625-15.6348Q8.86719-15.2441 9.04297-14.9512Q9.21875-14.6777 9.55566-14.541Q9.89258-14.4043 10.3809-14.5215Q11.4746-14.7754 12.5977-14.7314Q13.7207-14.6875 14.7949-13.9844L14.209-12.5293Q13.9551-11.9043 14.0674-11.4404Q14.1797-10.9766 14.5801-10.5664L16.875-8.25195Q17.2363-7.88086 17.5781-7.82227Q17.9199-7.76367 18.3398-7.8418L19.4043-8.03711L20.0684-7.36328L20.0293-6.80664Q20-6.43555 20.1221-6.12305Q20.2441-5.81055 20.6055-5.44922L21.3672-4.70703Q21.7285-4.3457 22.1533-4.33105Q22.5781-4.31641 22.9297-4.66797L25.8398-7.58789Q26.1914-7.93945 26.1816-8.35449Q26.1719-8.76953 25.8105-9.13086L25.0391-9.89258Q24.6875-10.2539 24.3799-10.3857Q24.0723-10.5176 23.7109-10.4883L23.1348-10.4395L22.4902-11.0742L22.7344-12.1973Q22.832-12.6172 22.6953-12.9834Q22.5586-13.3496 22.1191-13.7891L19.9219-15.9766Q18.6719-17.2168 17.2607-17.8369Q15.8496-18.457 14.4189-18.4814Q12.9883-18.5059 11.665-17.959Q10.3418-17.4121 9.25781-16.3281ZM10.752-15.957Q11.6602-16.6211 12.7002-16.9043Q13.7402-17.1875 14.8047-17.085Q15.8691-16.9824 16.8701-16.5137Q17.8711-16.0449 18.7012-15.2051L21.1328-12.793Q21.3086-12.6172 21.3525-12.4512Q21.3965-12.2852 21.3379-12.0312L21.0156-10.5469L22.5195-9.0625L23.5059-9.12109Q23.6914-9.13086 23.7891-9.09668Q23.8867-9.0625 24.0332-8.91602L24.6094-8.33984L22.168-5.89844L21.5918-6.47461Q21.4453-6.62109 21.4062-6.71875Q21.3672-6.81641 21.377-7.01172L21.4453-7.98828L19.9512-9.47266L18.4277-9.21875Q18.1836-9.16992 18.042-9.2041Q17.9004-9.23828 17.7148-9.41406L15.7129-11.416Q15.5176-11.5918 15.4932-11.7529Q15.4688-11.9141 15.5859-12.1875L16.4648-14.2773Q15.293-15.3711 13.8281-15.791Q12.3633-16.2109 10.8398-15.7617Q10.7227-15.7324 10.6885-15.8057Q10.6543-15.8789 10.752-15.957Z"/>
  </g>
  <text style="stroke:none;fill:black;font-family:sans-serif;font-size:13;font-weight:bold;" transform="matrix(1 0 0 1 1289 1953)">Exporting</text>
  <text style="stroke:none;fill:black;font-family:sans-serif;font-size:13;" transform="matrix(1 0 0 1 1289 1971)">Symbols should be outlined when exporting to ensure the</text>
  <text style="stroke:none;fill:black;font-family:sans-serif;font-size:13;" transform="matrix(1 0 0 1 1289 1989)">design is preserved when submitting to Xcode.</text>
  <text id="template-version" style="stroke:none;fill:black;font-family:sans-serif;font-size:13;text-anchor:end;" transform="matrix(1 0 0 1 3036 1933)">Template v.3.0</text>
  <text style="stroke:none;fill:black;font-family:sans-serif;font-size:13;text-anchor:end;" transform="matrix(1 0 0 1 3036 1951)">Requires Xcode 13 or greater</text>
  <text id="descriptive-name" style="stroke:none;fill:black;font-family:sans-serif;font-size:13;text-anchor:end;" transform="matrix(1 0 0 1 3036 1969)">Symbol moniker: apple-m-logo</text>
  <text style="stroke:none;fill:black;font-family:sans-serif;font-size:13;text-anchor:end;" transform="matrix(1 0 0 1 3036 1987)">Typeset at 100 points</text>
  <text style="stroke:none;fill:black;font-family:sans-serif;font-size:13;" transform="matrix(1 0 0 1 263 726)">Small</text>
  <text style="stroke:none;fill:black;font-family:sans-serif;font-size:13;" transform="matrix(1 0 0 1 263 1156)">Medium</text>
  <text style="stroke:none;fill:black;font-family:sans-serif;font-size:13;" transform="matrix(1 0 0 1 263 1586)">Large</text>
 </g>
 <g id="Guides">
  <g id="H-reference" style="fill:#27AAE1;stroke:none;" transform="matrix(1 0 0 1 339 696)">
   <path d="M0.976562 0L3.66211 0L29.3457-67.1387L30.0293-67.1387L30.0293-70.459L28.125-70.459ZM11.6699-24.4629L46.9727-24.4629L46.2402-26.709L12.4512-26.709ZM55.127 0L57.7637 0L30.6152-70.459L29.4434-70.459L29.4434-67.1387Z"/>
  </g>
  <line id="Baseline-S" style="fill:none;stroke:#27AAE1;opacity:1;stroke-width:0.5;" x1="263" x2="3036" y1="696" y2="696"/>
  <line id="Capline-S" style="fill:none;stroke:#27AAE1;opacity:1;stroke-width:0.5;" x1="263" x2="3036" y1="625.541" y2="625.541"/>
  <g id="H-reference" style="fill:#27AAE1;stroke:none;" transform="matrix(1 0 0 1 339 1126)">
   <path d="M0.976562 0L3.66211 0L29.3457-67.1387L30.0293-67.1387L30.0293-70.459L28.125-70.459ZM11.6699-24.4629L46.9727-24.4629L46.2402-26.709L12.4512-26.709ZM55.127 0L57.7637 0L30.6152-70.459L29.4434-70.459L29.4434-67.1387Z"/>
  </g>
  <line id="Baseline-M" style="fill:none;stroke:#27AAE1;opacity:1;stroke-width:0.5;" x1="263" x2="3036" y1="1126" y2="1126"/>
  <line id="Capline-M" style="fill:none;stroke:#27AAE1;opacity:1;stroke-width:0.5;" x1="263" x2="3036" y1="1055.54" y2="1055.54"/>
  <g id="H-reference" style="fill:#27AAE1;stroke:none;" transform="matrix(1 0 0 1 339 1556)">
   <path d="M0.976562 0L3.66211 0L29.3457-67.1387L30.0293-67.1387L30.0293-70.459L28.125-70.459ZM11.6699-24.4629L46.9727-24.4629L46.2402-26.709L12.4512-26.709ZM55.127 0L57.7637 0L30.6152-70.459L29.4434-70.459L29.4434-67.1387Z"/>
  </g>
  <line id="Baseline-L" style="fill:none;stroke:#27AAE1;opacity:1;stroke-width:0.5;" x1="263" x2="3036" y1="1556" y2="1556"/>
  <line id="Capline-L" style="fill:none;stroke:#27AAE1;opacity:1;stroke-width:0.5;" x1="263" x2="3036" y1="1485.54" y2="1485.54"/>
  <line id="left-margin-Ultralight-S" style="fill:none;stroke:#00AEEF;stroke-width:0.5;opacity:1.0;" x1="515.351" x2="515.351" y1="600.784" y2="720.121"/>
  <line id="right-margin-Ultralight-S" style="fill:none;stroke:#00AEEF;stroke-width:0.5;opacity:1.0;" x1="604.071" x2="604.071" y1="600.784" y2="720.121"/>
  <line id="left-margin-Regular-S" style="fill:none;stroke:#00AEEF;stroke-width:0.5;opacity:1.0;" x1="1401.75" x2="1401.75" y1="600.784" y2="720.121"/>
  <line id="right-margin-Regular-S" style="fill:none;stroke:#00AEEF;stroke-width:0.5;opacity:1.0;" x1="1497.94" x2="1497.94" y1="600.784" y2="720.121"/>
  <line id="left-margin-Black-S" style="fill:none;stroke:#00AEEF;stroke-width:0.5;opacity:1.0;" x1="2883.2" x2="2883.2" y1="600.784" y2="720.121"/>
  <line id="right-margin-Black-S" style="fill:none;stroke:#00AEEF;stroke-width:0.5;opacity:1.0;" x1="2983.6" x2="2983.6" y1="600.784" y2="720.121"/>
 </g>
 <g id="Symbols">
  <g id="Black-L" transform="matrix(1,0,0,1,2853.3999999999996,1440.77)">

  <path d="M159.9921875 44.316562499999996C159.984375 42.70765625 159.965625 41.098749999999995 159.921875 39.489843750000006 159.828125 35.983125 159.61874999999998 32.449687499999996 158.99687500000002 28.98296875 158.365625 25.4628125 157.3296875 22.1871875 155.70375 18.9871875 154.10375 15.844843749999999 152.01484375 12.973640625 149.52140625 10.48025 147.028125 7.986859375000001 144.1525 5.897921875 141.0103125 4.2978749999999994 137.8146875 2.671171875 134.5390625 1.64003125 131.0234375 1.0044671875 127.55671875000002 0.38223124999999997 124.01890625 0.17333749999999998 120.51218750000001 0.080001875 118.90328124999999 0.035556406250000006 117.29453124999999 0.017778125000000002 115.685625 0.00888909375 113.77437499999999 0 111.86328125 0 109.9521875 0H50.049375C48.13828125 0 46.22703125 0 44.315937500000004 0.00888909375 42.70703125 0.017778125000000002 41.098125 0.035556406250000006 39.48921875 0.080001875 35.9825 0.17778125 32.4446875 0.38223124999999997 28.978125000000002 1.0089125 25.457968750000003 1.64003125 22.186875 2.6756249999999997 18.99125 4.302328125 15.849062499999999 5.9023593750000005 12.973453125 7.991296875 10.480093749999998 10.4846875 7.986750000000001 12.978078125000001 5.897828125 15.84921875 4.2978125 18.9915625 2.6711406250000005 22.191562500000003 1.635578125 25.4671875 1.0044546875 28.98734375 0.3822265625 32.4540625 0.17333437499999998 35.991875 0.08000078125000001 39.49421875 0.0355559375 41.103125 0.01777796875 42.71203125 0.00888896875 44.321093749999996 0 46.2278125 0 48.13890625 0 50.05V109.94921875C0 111.86031249999999 0 113.7715625 0.00888896875 115.68265625000001 0.01777796875 117.29156250000001 0.0355559375 118.900625 0.08000078125000001 120.50953125 0.17333437499999998 124.01624999999999 0.3822265625 127.5496875 1.0044546875 131.01640625 1.635578125 134.53640625 2.6711406250000005 137.81203125 4.2978125 141.01218749999998 5.897828125 144.15453125000002 7.986750000000001 147.02562500000002 10.480093749999998 149.51906250000002 12.973453125 152.0125 15.849062499999999 154.10140625 18.99125 155.70140625 22.186875 157.328125 25.462500000000002 158.359375 28.978125000000002 158.9953125 32.4446875 159.6171875 35.9825 159.8265625 39.48921875 159.91875 41.098125 159.9640625 42.70703125 159.98125 44.315937500000004 159.99062500000002 46.22703125 160.003125 48.13828125 160 50.049375 160H109.94765625C111.85890625 160 113.77000000000001 160 115.68109375 159.99062500000002 117.28999999999999 159.98125 118.89890625 159.9640625 120.5078125 159.91875 124.01453125 159.8265625 127.55234375 159.6171875 131.01906250000002 158.9953125 134.5390625 158.3640625 137.81015625 157.3328125 141.00578125 155.70140625 144.148125 154.10140625 147.02359375 152.0125 149.51703125 149.51906250000002 152.0103125 147.02562500000002 154.09921875 144.15453125000002 155.69921875 141.01218749999998 157.3265625 137.81203125 158.3609375 134.53640625 158.9921875 131.01640625 159.615625 127.5496875 159.8234375 124.01171875 159.9171875 120.50953125 159.9609375 118.900625 159.9796875 117.29156250000001 159.98749999999998 115.68265625000001 160.0015625 113.7715625 159.996875 111.86031249999999 159.996875 109.94921875V50.05C160.0015625 48.13890625 160.0015625 46.2278125 159.9921875 44.316562499999996ZM117.13 104.11796875C117.13 106.1446875 117.1121875 107.98468749999999 116.685625 110.01140625 116.2721875 111.98046875 115.51671875 113.83375 114.35671875 115.50046875 113.1965625 117.16265625 111.7121875 118.5271875 109.97890625 119.54953125 108.22328125 120.58500000000001 106.38765624999999 121.17609375 104.42328125 121.57171875 100.734375 122.31390625 98.21421875 122.4828125 95.8409375 122.00734374999999 93.55640625 121.54953125 91.61859375 120.49609375 90.0675 119.07390625 87.7696875 116.96718750000001 86.33859375 114.12265625 86.0275 111.15375 85.66296875 107.66921875 86.823125 103.9490625 89.43640625 101.20687500000001 90.75640625 99.82453124999999 92.41421875 98.73125 94.6275 97.86890625 96.94312500000001 96.97109375 99.49875 96.4334375 103.42765625 95.6421875 104.46328125000001 95.43328125000001 105.49875 95.22437500000001 106.53437500000001 95.015625 107.894375 94.74000000000001 109.06328125 94.39328125 110.00546874999999 93.2421875 110.95218750000001 92.0821875 110.97 90.67328125 110.97 89.27765624999999V54.036875C110.97 51.33890625 109.76109375 50.605624999999996 107.18328125 51.09890625 105.34328125 51.45890625 65.80953124999999 59.4325 65.80953124999999 59.4325 63.5784375 59.9703125 62.79609375 60.69921875 62.79609375 63.468125V115.09156250000001C62.79609375 117.11828125 62.68953125 118.95828125 62.26734375 120.985 61.85390625 122.95390624999999 61.098437499999996 124.80734375 59.93828125 126.4740625 58.77828125 128.13625 57.29390625 129.50078125 55.56046875 130.523125 53.80499999999999 131.55859375 51.969375 132.17640624999999 50.004999999999995 132.57203125 46.315937500000004 133.31421875 43.795937499999994 133.483125 41.42265625 133.0075 39.138125 132.5496875 37.200312499999995 131.4653125 35.64921875 130.04749999999999 33.351406250000004 127.94078125 32.018125 125.09625 31.702499999999997 122.12734375 31.338124999999998 118.64281249999999 32.4003125 114.92265625 35.018125000000005 112.18046875 36.338125 110.798125 37.995937500000004 109.70484375 40.20921875 108.8425 42.52484375 107.9446875 45.080468749999994 107.406875 49.009375000000006 106.61578125 50.045 106.406875 51.08046875 106.19796875 52.116093750000005 105.9890625 53.476093750000004 105.71359375 54.645 105.366875 55.5871875 104.21578124999999 56.529375 103.0646875 56.640468750000004 101.7090625 56.640468750000004 100.32234375 56.640468750000004 89.38874999999999 56.640468750000004 40.800937499999996 56.640468750000004 40.800937499999996 56.640468750000004 40.00093749999999 56.707187499999996 39.45875 56.7471875 39.19203125 56.938281249999996 37.938593749999995 57.440625 36.863125000000004 58.347187500000004 36.103125 59.1028125 35.471875000000004 60.07171875 35.031875 61.31171875 34.7696875L61.32953125 34.7653125 108.88546875 25.169531250000002C109.29874999999998 25.085 112.734375 24.476093749999997 113.12109375 24.440624999999997 115.69000000000001 24.218281250000004 117.13437499999999 25.90734375 117.13437499999999 28.64515625V104.11796875H117.13Z" class="hierarchical-1:primary "/></g>
  <g id="Regular-L" transform="matrix(1,0,0,1,1369.845,1440.77)">

  <path d="M159.9921875 44.316562499999996C159.984375 42.70765625 159.965625 41.098749999999995 159.921875 39.489843750000006 159.828125 35.983125 159.61874999999998 32.449687499999996 158.99687500000002 28.98296875 158.365625 25.4628125 157.3296875 22.1871875 155.70375 18.9871875 154.10375 15.844843749999999 152.01484375 12.973640625 149.52140625 10.48025 147.028125 7.986859375000001 144.1525 5.897921875 141.0103125 4.2978749999999994 137.8146875 2.671171875 134.5390625 1.64003125 131.0234375 1.0044671875 127.55671875000002 0.38223124999999997 124.01890625 0.17333749999999998 120.51218750000001 0.080001875 118.90328124999999 0.035556406250000006 117.29453124999999 0.017778125000000002 115.685625 0.00888909375 113.77437499999999 0 111.86328125 0 109.9521875 0H50.049375C48.13828125 0 46.22703125 0 44.315937500000004 0.00888909375 42.70703125 0.017778125000000002 41.098125 0.035556406250000006 39.48921875 0.080001875 35.9825 0.17778125 32.4446875 0.38223124999999997 28.978125000000002 1.0089125 25.457968750000003 1.64003125 22.186875 2.6756249999999997 18.99125 4.302328125 15.849062499999999 5.9023593750000005 12.973453125 7.991296875 10.480093749999998 10.4846875 7.986750000000001 12.978078125000001 5.897828125 15.84921875 4.2978125 18.9915625 2.6711406250000005 22.191562500000003 1.635578125 25.4671875 1.0044546875 28.98734375 0.3822265625 32.4540625 0.17333437499999998 35.991875 0.08000078125000001 39.49421875 0.0355559375 41.103125 0.01777796875 42.71203125 0.00888896875 44.321093749999996 0 46.2278125 0 48.13890625 0 50.05V109.94921875C0 111.86031249999999 0 113.7715625 0.00888896875 115.68265625000001 0.01777796875 117.29156250000001 0.0355559375 118.900625 0.08000078125000001 120.50953125 0.17333437499999998 124.01624999999999 0.3822265625 127.5496875 1.0044546875 131.01640625 1.635578125 134.53640625 2.6711406250000005 137.81203125 4.2978125 141.01218749999998 5.897828125 144.15453125000002 7.986750000000001 147.02562500000002 10.480093749999998 149.51906250000002 12.973453125 152.0125 15.849062499999999 154.10140625 18.99125 155.70140625 22.186875 157.328125 25.462500000000002 158.359375 28.978125000000002 158.9953125 32.4446875 159.6171875 35.9825 159.8265625 39.48921875 159.91875 41.098125 159.9640625 42.70703125 159.98125 44.315937500000004 159.99062500000002 46.22703125 160.003125 48.13828125 160 50.049375 160H109.94765625C111.85890625 160 113.77000000000001 160 115.68109375 159.99062500000002 117.28999999999999 159.98125 118.89890625 159.9640625 120.5078125 159.91875 124.01453125 159.8265625 127.55234375 159.6171875 131.01906250000002 158.9953125 134.5390625 158.3640625 137.81015625 157.3328125 141.00578125 155.70140625 144.148125 154.10140625 147.02359375 152.0125 149.51703125 149.51906250000002 152.0103125 147.02562500000002 154.09921875 144.15453125000002 155.69921875 141.01218749999998 157.3265625 137.81203125 158.3609375 134.53640625 158.9921875 131.01640625 159.615625 127.5496875 159.8234375 124.01171875 159.9171875 120.50953125 159.9609375 118.900625 159.9796875 117.29156250000001 159.98749999999998 115.68265625000001 160.0015625 113.7715625 159.996875 111.86031249999999 159.996875 109.94921875V50.05C160.0015625 48.13890625 160.0015625 46.2278125 159.9921875 44.316562499999996ZM117.13 104.11796875C117.13 106.1446875 117.1121875 107.98468749999999 116.685625 110.01140625 116.2721875 111.98046875 115.51671875 113.83375 114.35671875 115.50046875 113.1965625 117.16265625 111.7121875 118.5271875 109.97890625 119.54953125 108.22328125 120.58500000000001 106.38765624999999 121.17609375 104.42328125 121.57171875 100.734375 122.31390625 98.21421875 122.4828125 95.8409375 122.00734374999999 93.55640625 121.54953125 91.61859375 120.49609375 90.0675 119.07390625 87.7696875 116.96718750000001 86.33859375 114.12265625 86.0275 111.15375 85.66296875 107.66921875 86.823125 103.9490625 89.43640625 101.20687500000001 90.75640625 99.82453124999999 92.41421875 98.73125 94.6275 97.86890625 96.94312500000001 96.97109375 99.49875 96.4334375 103.42765625 95.6421875 104.46328125000001 95.43328125000001 105.49875 95.22437500000001 106.53437500000001 95.015625 107.894375 94.74000000000001 109.06328125 94.39328125 110.00546874999999 93.2421875 110.95218750000001 92.0821875 110.97 90.67328125 110.97 89.27765624999999V54.036875C110.97 51.33890625 109.76109375 50.605624999999996 107.18328125 51.09890625 105.34328125 51.45890625 65.80953124999999 59.4325 65.80953124999999 59.4325 63.5784375 59.9703125 62.79609375 60.69921875 62.79609375 63.468125V115.09156250000001C62.79609375 117.11828125 62.68953125 118.95828125 62.26734375 120.985 61.85390625 122.95390624999999 61.098437499999996 124.80734375 59.93828125 126.4740625 58.77828125 128.13625 57.29390625 129.50078125 55.56046875 130.523125 53.80499999999999 131.55859375 51.969375 132.17640624999999 50.004999999999995 132.57203125 46.315937500000004 133.31421875 43.795937499999994 133.483125 41.42265625 133.0075 39.138125 132.5496875 37.200312499999995 131.4653125 35.64921875 130.04749999999999 33.351406250000004 127.94078125 32.018125 125.09625 31.702499999999997 122.12734375 31.338124999999998 118.64281249999999 32.4003125 114.92265625 35.018125000000005 112.18046875 36.338125 110.798125 37.995937500000004 109.70484375 40.20921875 108.8425 42.52484375 107.9446875 45.080468749999994 107.406875 49.009375000000006 106.61578125 50.045 106.406875 51.08046875 106.19796875 52.116093750000005 105.9890625 53.476093750000004 105.71359375 54.645 105.366875 55.5871875 104.21578124999999 56.529375 103.0646875 56.640468750000004 101.7090625 56.640468750000004 100.32234375 56.640468750000004 89.38874999999999 56.640468750000004 40.800937499999996 56.640468750000004 40.800937499999996 56.640468750000004 40.00093749999999 56.707187499999996 39.45875 56.7471875 39.19203125 56.938281249999996 37.938593749999995 57.440625 36.863125000000004 58.347187500000004 36.103125 59.1028125 35.471875000000004 60.07171875 35.031875 61.31171875 34.7696875L61.32953125 34.7653125 108.88546875 25.169531250000002C109.29874999999998 25.085 112.734375 24.476093749999997 113.12109375 24.440624999999997 115.69000000000001 24.218281250000004 117.13437499999999 25.90734375 117.13437499999999 28.64515625V104.11796875H117.13Z" class="hierarchical-1:primary "/></g>
  <g id="Ultralight-L" transform="matrix(1,0,0,1,479.711,1440.77)">

  <path d="M159.9921875 44.316562499999996C159.984375 42.70765625 159.965625 41.098749999999995 159.921875 39.489843750000006 159.828125 35.983125 159.61874999999998 32.449687499999996 158.99687500000002 28.98296875 158.365625 25.4628125 157.3296875 22.1871875 155.70375 18.9871875 154.10375 15.844843749999999 152.01484375 12.973640625 149.52140625 10.48025 147.028125 7.986859375000001 144.1525 5.897921875 141.0103125 4.2978749999999994 137.8146875 2.671171875 134.5390625 1.64003125 131.0234375 1.0044671875 127.55671875000002 0.38223124999999997 124.01890625 0.17333749999999998 120.51218750000001 0.080001875 118.90328124999999 0.035556406250000006 117.29453124999999 0.017778125000000002 115.685625 0.00888909375 113.77437499999999 0 111.86328125 0 109.9521875 0H50.049375C48.13828125 0 46.22703125 0 44.315937500000004 0.00888909375 42.70703125 0.017778125000000002 41.098125 0.035556406250000006 39.48921875 0.080001875 35.9825 0.17778125 32.4446875 0.38223124999999997 28.978125000000002 1.0089125 25.457968750000003 1.64003125 22.186875 2.6756249999999997 18.99125 4.302328125 15.849062499999999 5.9023593750000005 12.973453125 7.991296875 10.480093749999998 10.4846875 7.986750000000001 12.978078125000001 5.897828125 15.84921875 4.2978125 18.9915625 2.6711406250000005 22.191562500000003 1.635578125 25.4671875 1.0044546875 28.98734375 0.3822265625 32.4540625 0.17333437499999998 35.991875 0.08000078125000001 39.49421875 0.0355559375 41.103125 0.01777796875 42.71203125 0.00888896875 44.321093749999996 0 46.2278125 0 48.13890625 0 50.05V109.94921875C0 111.86031249999999 0 113.7715625 0.00888896875 115.68265625000001 0.01777796875 117.29156250000001 0.0355559375 118.900625 0.08000078125000001 120.50953125 0.17333437499999998 124.01624999999999 0.3822265625 127.5496875 1.0044546875 131.01640625 1.635578125 134.53640625 2.6711406250000005 137.81203125 4.2978125 141.01218749999998 5.897828125 144.15453125000002 7.986750000000001 147.02562500000002 10.480093749999998 149.51906250000002 12.973453125 152.0125 15.849062499999999 154.10140625 18.99125 155.70140625 22.186875 157.328125 25.462500000000002 158.359375 28.978125000000002 158.9953125 32.4446875 159.6171875 35.9825 159.8265625 39.48921875 159.91875 41.098125 159.9640625 42.70703125 159.98125 44.315937500000004 159.99062500000002 46.22703125 160.003125 48.13828125 160 50.049375 160H109.94765625C111.85890625 160 113.77000000000001 160 115.68109375 159.99062500000002 117.28999999999999 159.98125 118.89890625 159.9640625 120.5078125 159.91875 124.01453125 159.8265625 127.55234375 159.6171875 131.01906250000002 158.9953125 134.5390625 158.3640625 137.81015625 157.3328125 141.00578125 155.70140625 144.148125 154.10140625 147.02359375 152.0125 149.51703125 149.51906250000002 152.0103125 147.02562500000002 154.09921875 144.15453125000002 155.69921875 141.01218749999998 157.3265625 137.81203125 158.3609375 134.53640625 158.9921875 131.01640625 159.615625 127.5496875 159.8234375 124.01171875 159.9171875 120.50953125 159.9609375 118.900625 159.9796875 117.29156250000001 159.98749999999998 115.68265625000001 160.0015625 113.7715625 159.996875 111.86031249999999 159.996875 109.94921875V50.05C160.0015625 48.13890625 160.0015625 46.2278125 159.9921875 44.316562499999996ZM117.13 104.11796875C117.13 106.1446875 117.1121875 107.98468749999999 116.685625 110.01140625 116.2721875 111.98046875 115.51671875 113.83375 114.35671875 115.50046875 113.1965625 117.16265625 111.7121875 118.5271875 109.97890625 119.54953125 108.22328125 120.58500000000001 106.38765624999999 121.17609375 104.42328125 121.57171875 100.734375 122.31390625 98.21421875 122.4828125 95.8409375 122.00734374999999 93.55640625 121.54953125 91.61859375 120.49609375 90.0675 119.07390625 87.7696875 116.96718750000001 86.33859375 114.12265625 86.0275 111.15375 85.66296875 107.66921875 86.823125 103.9490625 89.43640625 101.20687500000001 90.75640625 99.82453124999999 92.41421875 98.73125 94.6275 97.86890625 96.94312500000001 96.97109375 99.49875 96.4334375 103.42765625 95.6421875 104.46328125000001 95.43328125000001 105.49875 95.22437500000001 106.53437500000001 95.015625 107.894375 94.74000000000001 109.06328125 94.39328125 110.00546874999999 93.2421875 110.95218750000001 92.0821875 110.97 90.67328125 110.97 89.27765624999999V54.036875C110.97 51.33890625 109.76109375 50.605624999999996 107.18328125 51.09890625 105.34328125 51.45890625 65.80953124999999 59.4325 65.80953124999999 59.4325 63.5784375 59.9703125 62.79609375 60.69921875 62.79609375 63.468125V115.09156250000001C62.79609375 117.11828125 62.68953125 118.95828125 62.26734375 120.985 61.85390625 122.95390624999999 61.098437499999996 124.80734375 59.93828125 126.4740625 58.77828125 128.13625 57.29390625 129.50078125 55.56046875 130.523125 53.80499999999999 131.55859375 51.969375 132.17640624999999 50.004999999999995 132.57203125 46.315937500000004 133.31421875 43.795937499999994 133.483125 41.42265625 133.0075 39.138125 132.5496875 37.200312499999995 131.4653125 35.64921875 130.04749999999999 33.351406250000004 127.94078125 32.018125 125.09625 31.702499999999997 122.12734375 31.338124999999998 118.64281249999999 32.4003125 114.92265625 35.018125000000005 112.18046875 36.338125 110.798125 37.995937500000004 109.70484375 40.20921875 108.8425 42.52484375 107.9446875 45.080468749999994 107.406875 49.009375000000006 106.61578125 50.045 106.406875 51.08046875 106.19796875 52.116093750000005 105.9890625 53.476093750000004 105.71359375 54.645 105.366875 55.5871875 104.21578124999999 56.529375 103.0646875 56.640468750000004 101.7090625 56.640468750000004 100.32234375 56.640468750000004 89.38874999999999 56.640468750000004 40.800937499999996 56.640468750000004 40.800937499999996 56.640468750000004 40.00093749999999 56.707187499999996 39.45875 56.7471875 39.19203125 56.938281249999996 37.938593749999995 57.440625 36.863125000000004 58.347187500000004 36.103125 59.1028125 35.471875000000004 60.07171875 35.031875 61.31171875 34.7696875L61.32953125 34.7653125 108.88546875 25.169531250000002C109.29874999999998 25.085 112.734375 24.476093749999997 113.12109375 24.440624999999997 115.69000000000001 24.218281250000004 117.13437499999999 25.90734375 117.13437499999999 28.64515625V104.11796875H117.13Z" class="hierarchical-1:primary "/></g>
  <g id="Black-M" transform="matrix(1,0,0,1,2869.3999999999996,1026.77)">

  <path d="M127.99375 35.45325C127.9875 34.166125 127.9725 32.879 127.9375 31.591875 127.8625 28.7865 127.695 25.95975 127.1975 23.186375 126.6925 20.37025 125.86375 17.74975 124.563 15.18975 123.283 12.675875 121.611875 10.3789125 119.617125 8.3842 117.6225 6.3894875 115.322 4.7183375 112.80825 3.4383 110.25175 2.1369375 107.63125 1.312025 104.81875 0.80357375 102.045375 0.305785 99.215125 0.13867 96.40975 0.0640015 95.122625 0.028445125 93.835625 0.0142225 92.5485 0.007111275 91.0195 0 89.490625 0 87.96175 0H40.0395C38.510625 0 36.981625 0 35.45275 0.007111275 34.165625 0.0142225 32.8785 0.028445125 31.591375 0.0640015 28.786 0.142225 25.95575 0.305785 23.1825 0.80713 20.366375 1.312025 17.7495 2.1405 15.193 3.4418625 12.67925 4.7218875 10.3787625 6.3930375 8.384075 8.38775 6.3894 10.3824625 4.7182625 12.679375 3.43825 15.19325 2.1369125 17.75325 1.3084625 20.37375 0.80356375 23.189875 0.30578125 25.96325 0.1386675 28.7935 0.064000625 31.595375 0.02844475 32.8825 0.014222375 34.169625 0.007111175 35.456875 0 36.98225 0 38.511125 0 40.04V87.959375C0 89.48825 0 91.01725 0.007111175 92.546125 0.014222375 93.83325 0.02844475 95.1205 0.064000625 96.407625 0.1386675 99.213 0.30578125 102.03975 0.80356375 104.813125 1.3084625 107.629125 2.1369125 110.249625 3.43825 112.80975 4.7182625 115.323625 6.3894 117.6205 8.384075 119.61525 10.3787625 121.61 12.67925 123.281125 15.193 124.561125 17.7495 125.8625 20.37 126.6875 23.1825 127.19625 25.95575 127.69375 28.786 127.86125 31.591375 127.935 32.8785 127.97125 34.165625 127.985 35.45275 127.9925 36.981625 128.0025 38.510625 128 40.0395 128H87.958125C89.487125 128 91.016 128 92.544875 127.9925 93.832 127.985 95.119125 127.97125 96.40625 127.935 99.211625 127.86125 102.041875 127.69375 104.81525 127.19625 107.63125 126.69125 110.248125 125.86625 112.804625 124.561125 115.3185 123.281125 117.618875 121.61 119.613625 119.61525 121.60825 117.6205 123.279375 115.323625 124.559375 112.80975 125.86125 110.249625 126.68875 107.629125 127.19375 104.813125 127.6925 102.03975 127.85875 99.209375 127.93375 96.407625 127.96875 95.1205 127.98375 93.83325 127.99 92.546125 128.00125 91.01725 127.9975 89.48825 127.9975 87.959375V40.04C128.00125 38.511125 128.00125 36.98225 127.99375 35.45325ZM93.704 83.294375C93.704 84.91575 93.68975 86.38775 93.3485 88.009125 93.01775 89.584375 92.413375 91.067 91.485375 92.400375 90.55725 93.730125 89.36975 94.82175 87.983125 95.639625 86.578625 96.468 85.110125 96.940875 83.538625 97.257375 80.5875 97.851125 78.571375 97.98625 76.67275 97.605875 74.845125 97.239625 73.294875 96.396875 72.054 95.259125 70.21575 93.57375 69.070875 91.298125 68.822 88.923 68.530375 86.135375 69.4585 83.15925 71.549125 80.9655 72.605125 79.859625 73.931375 78.985 75.702 78.295125 77.5545 77.576875 79.599 77.14675 82.742125 76.51375 83.570625 76.346625 84.399 76.1795 85.2275 76.0125 86.3155 75.792 87.250625 75.514625 88.004375 74.59375 88.76175 73.66575 88.776 72.538625 88.776 71.422125V43.2295C88.776 41.071125 87.808875 40.4845 85.746625 40.879125 84.274625 41.167125 52.647625 47.546 52.647625 47.546 50.86275 47.97625 50.236875 48.559375 50.236875 50.7745V92.07325C50.236875 93.694625 50.151625 95.166625 49.813875 96.788 49.483125 98.363125 48.87875 99.845875 47.950625 101.17925 47.022625 102.509 45.835125 103.600625 44.448375 104.4185 43.044 105.246875 41.5755 105.741125 40.004 106.057625 37.05275 106.651375 35.03675 106.7865 33.138125 106.406 31.3105 106.03975 29.76025 105.17225 28.519375 104.038 26.681125 102.352625 25.6145 100.077 25.362 97.701875 25.0705 94.91425 25.92025 91.938125 28.0145 89.744375 29.0705 88.6385 30.39675 87.763875 32.167375 87.074 34.019875 86.35575 36.064375 85.9255 39.2075 85.292625 40.036 85.1255 40.864375 84.958375 41.692875 84.79125 42.780875 84.570875 43.716 84.2935 44.46975 83.372625 45.2235 82.45175 45.312375 81.36725 45.312375 80.257875 45.312375 71.511 45.312375 32.64075 45.312375 32.64075 45.312375 32.00075 45.36575 31.567 45.39775 31.353625 45.550625 30.350875 45.9525 29.4905 46.67775 28.8825 47.28225 28.3775 48.057375 28.0255 49.049375 27.81575L49.063625 27.81225 87.108375 20.135625C87.439 20.068 90.1875 19.580875 90.496875 19.5525 92.552 19.374625 93.7075 20.725875 93.7075 22.916125V83.294375H93.704Z" class="hierarchical-1:primary "/></g>
  <g id="Regular-M" transform="matrix(1,0,0,1,1385.845,1026.77)">

  <path d="M127.99375 35.45325C127.9875 34.166125 127.9725 32.879 127.9375 31.591875 127.8625 28.7865 127.695 25.95975 127.1975 23.186375 126.6925 20.37025 125.86375 17.74975 124.563 15.18975 123.283 12.675875 121.611875 10.3789125 119.617125 8.3842 117.6225 6.3894875 115.322 4.7183375 112.80825 3.4383 110.25175 2.1369375 107.63125 1.312025 104.81875 0.80357375 102.045375 0.305785 99.215125 0.13867 96.40975 0.0640015 95.122625 0.028445125 93.835625 0.0142225 92.5485 0.007111275 91.0195 0 89.490625 0 87.96175 0H40.0395C38.510625 0 36.981625 0 35.45275 0.007111275 34.165625 0.0142225 32.8785 0.028445125 31.591375 0.0640015 28.786 0.142225 25.95575 0.305785 23.1825 0.80713 20.366375 1.312025 17.7495 2.1405 15.193 3.4418625 12.67925 4.7218875 10.3787625 6.3930375 8.384075 8.38775 6.3894 10.3824625 4.7182625 12.679375 3.43825 15.19325 2.1369125 17.75325 1.3084625 20.37375 0.80356375 23.189875 0.30578125 25.96325 0.1386675 28.7935 0.064000625 31.595375 0.02844475 32.8825 0.014222375 34.169625 0.007111175 35.456875 0 36.98225 0 38.511125 0 40.04V87.959375C0 89.48825 0 91.01725 0.007111175 92.546125 0.014222375 93.83325 0.02844475 95.1205 0.064000625 96.407625 0.1386675 99.213 0.30578125 102.03975 0.80356375 104.813125 1.3084625 107.629125 2.1369125 110.249625 3.43825 112.80975 4.7182625 115.323625 6.3894 117.6205 8.384075 119.61525 10.3787625 121.61 12.67925 123.281125 15.193 124.561125 17.7495 125.8625 20.37 126.6875 23.1825 127.19625 25.95575 127.69375 28.786 127.86125 31.591375 127.935 32.8785 127.97125 34.165625 127.985 35.45275 127.9925 36.981625 128.0025 38.510625 128 40.0395 128H87.958125C89.487125 128 91.016 128 92.544875 127.9925 93.832 127.985 95.119125 127.97125 96.40625 127.935 99.211625 127.86125 102.041875 127.69375 104.81525 127.19625 107.63125 126.69125 110.248125 125.86625 112.804625 124.561125 115.3185 123.281125 117.618875 121.61 119.613625 119.61525 121.60825 117.6205 123.279375 115.323625 124.559375 112.80975 125.86125 110.249625 126.68875 107.629125 127.19375 104.813125 127.6925 102.03975 127.85875 99.209375 127.93375 96.407625 127.96875 95.1205 127.98375 93.83325 127.99 92.546125 128.00125 91.01725 127.9975 89.48825 127.9975 87.959375V40.04C128.00125 38.511125 128.00125 36.98225 127.99375 35.45325ZM93.704 83.294375C93.704 84.91575 93.68975 86.38775 93.3485 88.009125 93.01775 89.584375 92.413375 91.067 91.485375 92.400375 90.55725 93.730125 89.36975 94.82175 87.983125 95.639625 86.578625 96.468 85.110125 96.940875 83.538625 97.257375 80.5875 97.851125 78.571375 97.98625 76.67275 97.605875 74.845125 97.239625 73.294875 96.396875 72.054 95.259125 70.21575 93.57375 69.070875 91.298125 68.822 88.923 68.530375 86.135375 69.4585 83.15925 71.549125 80.9655 72.605125 79.859625 73.931375 78.985 75.702 78.295125 77.5545 77.576875 79.599 77.14675 82.742125 76.51375 83.570625 76.346625 84.399 76.1795 85.2275 76.0125 86.3155 75.792 87.250625 75.514625 88.004375 74.59375 88.76175 73.66575 88.776 72.538625 88.776 71.422125V43.2295C88.776 41.071125 87.808875 40.4845 85.746625 40.879125 84.274625 41.167125 52.647625 47.546 52.647625 47.546 50.86275 47.97625 50.236875 48.559375 50.236875 50.7745V92.07325C50.236875 93.694625 50.151625 95.166625 49.813875 96.788 49.483125 98.363125 48.87875 99.845875 47.950625 101.17925 47.022625 102.509 45.835125 103.600625 44.448375 104.4185 43.044 105.246875 41.5755 105.741125 40.004 106.057625 37.05275 106.651375 35.03675 106.7865 33.138125 106.406 31.3105 106.03975 29.76025 105.17225 28.519375 104.038 26.681125 102.352625 25.6145 100.077 25.362 97.701875 25.0705 94.91425 25.92025 91.938125 28.0145 89.744375 29.0705 88.6385 30.39675 87.763875 32.167375 87.074 34.019875 86.35575 36.064375 85.9255 39.2075 85.292625 40.036 85.1255 40.864375 84.958375 41.692875 84.79125 42.780875 84.570875 43.716 84.2935 44.46975 83.372625 45.2235 82.45175 45.312375 81.36725 45.312375 80.257875 45.312375 71.511 45.312375 32.64075 45.312375 32.64075 45.312375 32.00075 45.36575 31.567 45.39775 31.353625 45.550625 30.350875 45.9525 29.4905 46.67775 28.8825 47.28225 28.3775 48.057375 28.0255 49.049375 27.81575L49.063625 27.81225 87.108375 20.135625C87.439 20.068 90.1875 19.580875 90.496875 19.5525 92.552 19.374625 93.7075 20.725875 93.7075 22.916125V83.294375H93.704Z" class="hierarchical-1:primary "/></g>
  <g id="Ultralight-M" transform="matrix(1,0,0,1,495.711,1026.77)">

  <path d="M127.99375 35.45325C127.9875 34.166125 127.9725 32.879 127.9375 31.591875 127.8625 28.7865 127.695 25.95975 127.1975 23.186375 126.6925 20.37025 125.86375 17.74975 124.563 15.18975 123.283 12.675875 121.611875 10.3789125 119.617125 8.3842 117.6225 6.3894875 115.322 4.7183375 112.80825 3.4383 110.25175 2.1369375 107.63125 1.312025 104.81875 0.80357375 102.045375 0.305785 99.215125 0.13867 96.40975 0.0640015 95.122625 0.028445125 93.835625 0.0142225 92.5485 0.007111275 91.0195 0 89.490625 0 87.96175 0H40.0395C38.510625 0 36.981625 0 35.45275 0.007111275 34.165625 0.0142225 32.8785 0.028445125 31.591375 0.0640015 28.786 0.142225 25.95575 0.305785 23.1825 0.80713 20.366375 1.312025 17.7495 2.1405 15.193 3.4418625 12.67925 4.7218875 10.3787625 6.3930375 8.384075 8.38775 6.3894 10.3824625 4.7182625 12.679375 3.43825 15.19325 2.1369125 17.75325 1.3084625 20.37375 0.80356375 23.189875 0.30578125 25.96325 0.1386675 28.7935 0.064000625 31.595375 0.02844475 32.8825 0.014222375 34.169625 0.007111175 35.456875 0 36.98225 0 38.511125 0 40.04V87.959375C0 89.48825 0 91.01725 0.007111175 92.546125 0.014222375 93.83325 0.02844475 95.1205 0.064000625 96.407625 0.1386675 99.213 0.30578125 102.03975 0.80356375 104.813125 1.3084625 107.629125 2.1369125 110.249625 3.43825 112.80975 4.7182625 115.323625 6.3894 117.6205 8.384075 119.61525 10.3787625 121.61 12.67925 123.281125 15.193 124.561125 17.7495 125.8625 20.37 126.6875 23.1825 127.19625 25.95575 127.69375 28.786 127.86125 31.591375 127.935 32.8785 127.97125 34.165625 127.985 35.45275 127.9925 36.981625 128.0025 38.510625 128 40.0395 128H87.958125C89.487125 128 91.016 128 92.544875 127.9925 93.832 127.985 95.119125 127.97125 96.40625 127.935 99.211625 127.86125 102.041875 127.69375 104.81525 127.19625 107.63125 126.69125 110.248125 125.86625 112.804625 124.561125 115.3185 123.281125 117.618875 121.61 119.613625 119.61525 121.60825 117.6205 123.279375 115.323625 124.559375 112.80975 125.86125 110.249625 126.68875 107.629125 127.19375 104.813125 127.6925 102.03975 127.85875 99.209375 127.93375 96.407625 127.96875 95.1205 127.98375 93.83325 127.99 92.546125 128.00125 91.01725 127.9975 89.48825 127.9975 87.959375V40.04C128.00125 38.511125 128.00125 36.98225 127.99375 35.45325ZM93.704 83.294375C93.704 84.91575 93.68975 86.38775 93.3485 88.009125 93.01775 89.584375 92.413375 91.067 91.485375 92.400375 90.55725 93.730125 89.36975 94.82175 87.983125 95.639625 86.578625 96.468 85.110125 96.940875 83.538625 97.257375 80.5875 97.851125 78.571375 97.98625 76.67275 97.605875 74.845125 97.239625 73.294875 96.396875 72.054 95.259125 70.21575 93.57375 69.070875 91.298125 68.822 88.923 68.530375 86.135375 69.4585 83.15925 71.549125 80.9655 72.605125 79.859625 73.931375 78.985 75.702 78.295125 77.5545 77.576875 79.599 77.14675 82.742125 76.51375 83.570625 76.346625 84.399 76.1795 85.2275 76.0125 86.3155 75.792 87.250625 75.514625 88.004375 74.59375 88.76175 73.66575 88.776 72.538625 88.776 71.422125V43.2295C88.776 41.071125 87.808875 40.4845 85.746625 40.879125 84.274625 41.167125 52.647625 47.546 52.647625 47.546 50.86275 47.97625 50.236875 48.559375 50.236875 50.7745V92.07325C50.236875 93.694625 50.151625 95.166625 49.813875 96.788 49.483125 98.363125 48.87875 99.845875 47.950625 101.17925 47.022625 102.509 45.835125 103.600625 44.448375 104.4185 43.044 105.246875 41.5755 105.741125 40.004 106.057625 37.05275 106.651375 35.03675 106.7865 33.138125 106.406 31.3105 106.03975 29.76025 105.17225 28.519375 104.038 26.681125 102.352625 25.6145 100.077 25.362 97.701875 25.0705 94.91425 25.92025 91.938125 28.0145 89.744375 29.0705 88.6385 30.39675 87.763875 32.167375 87.074 34.019875 86.35575 36.064375 85.9255 39.2075 85.292625 40.036 85.1255 40.864375 84.958375 41.692875 84.79125 42.780875 84.570875 43.716 84.2935 44.46975 83.372625 45.2235 82.45175 45.312375 81.36725 45.312375 80.257875 45.312375 71.511 45.312375 32.64075 45.312375 32.64075 45.312375 32.00075 45.36575 31.567 45.39775 31.353625 45.550625 30.350875 45.9525 29.4905 46.67775 28.8825 47.28225 28.3775 48.057375 28.0255 49.049375 27.81575L49.063625 27.81225 87.108375 20.135625C87.439 20.068 90.1875 19.580875 90.496875 19.5525 92.552 19.374625 93.7075 20.725875 93.7075 22.916125V83.294375H93.704Z" class="hierarchical-1:primary "/></g>
  <g id="Black-S" transform="matrix(1,0,0,1,2885.3999999999996,612.7705000000001)">

  <path d="M95.99531250000001 26.589937499999998C95.990625 25.624593750000003 95.979375 24.65925 95.953125 23.69390625 95.896875 21.589875 95.77125 19.4698125 95.39812500000001 17.389781250000002 95.019375 15.277687499999999 94.3978125 13.312312499999999 93.42225 11.3923125 92.46225 9.50690625 91.20890625 7.784184375000001 89.71284375 6.28815 88.216875 4.792115625 86.4915 3.5387531249999995 84.6061875 2.578725 82.6888125 1.6027031250000001 80.72343749999999 0.9840187499999999 78.61406249999999 0.6026803125 76.53403125 0.22933874999999998 74.41134375 0.1040025 72.3073125 0.048001125000000006 71.34196875 0.02133384375 70.37671875 0.010666875000000001 69.411375 0.00533345625 68.264625 0 67.11796874999999 0 65.9713125 0H30.029624999999996C28.882968749999996 0 27.73621875 0 26.5895625 0.00533345625 25.624218749999997 0.010666875000000001 24.658875000000002 0.02133384375 23.69353125 0.048001125000000006 21.5895 0.10666874999999999 19.4668125 0.22933874999999998 17.386875 0.6053475 15.27478125 0.9840187499999999 13.312125000000002 1.605375 11.39475 2.5813968750000003 9.5094375 3.541415625 7.784071875 4.794778125000001 6.2880562499999995 6.2908125 4.79205 7.786846875 3.538696875 9.50953125 2.5786875 11.394937500000001 1.6026843750000002 13.314937500000001 0.9813468750000001 15.2803125 0.6026728125 17.39240625 0.2293359375 19.472437499999998 0.104000625 21.595125000000003 0.048000468750000004 23.69653125 0.0213335625 24.661875000000002 0.01066678125 25.627218750000004 0.00533338125 26.592656249999997 0 27.736687500000002 0 28.88334375 0 30.03V65.96953124999999C0 67.1161875 0 68.2629375 0.00533338125 69.40959375 0.01066678125 70.3749375 0.0213335625 71.34037500000001 0.048000468750000004 72.30571875 0.104000625 74.40975 0.2293359375 76.52981249999999 0.6026728125 78.60984375 0.9813468750000001 80.72184375 1.6026843750000002 82.68721875 2.5786875 84.60731249999999 3.538696875 86.49271875000001 4.79205 88.21537500000001 6.2880562499999995 89.7114375 7.784071875 91.2075 9.5094375 92.46084375000001 11.39475 93.42084375 13.312125000000002 94.396875 15.2775 95.015625 17.386875 95.3971875 19.4668125 95.77031249999999 21.5895 95.8959375 23.69353125 95.95125 24.658875000000002 95.9784375 25.624218749999997 95.98875 26.5895625 95.994375 27.73621875 96.001875 28.882968749999996 96 30.029624999999996 96H65.96859375C67.11534375000001 96 68.262 96 69.40865625 95.994375 70.374 95.98875 71.33934375 95.9784375 72.3046875 95.95125 74.40871874999999 95.8959375 76.53140625 95.77031249999999 78.61143750000001 95.3971875 80.72343749999999 95.0184375 82.68609375 94.3996875 84.60346875 93.42084375 86.48887500000001 92.46084375000001 88.21415625 91.2075 89.71021875 89.7114375 91.2061875 88.21537500000001 92.45953125 86.49271875000001 93.41953125 84.60731249999999 94.3959375 82.68721875 95.01656249999999 80.72184375 95.39531249999999 78.60984375 95.769375 76.52981249999999 95.8940625 74.40703124999999 95.9503125 72.30571875 95.9765625 71.34037500000001 95.9878125 70.3749375 95.99249999999999 69.40959375 96.00093749999999 68.2629375 95.998125 67.1161875 95.998125 65.96953124999999V30.03C96.00093749999999 28.88334375 96.00093749999999 27.736687500000002 95.99531250000001 26.589937499999998ZM70.27799999999999 62.47078125C70.27799999999999 63.6868125 70.2673125 64.7908125 70.011375 66.00684375 69.76331250000001 67.18828124999999 69.31003125000001 68.30024999999999 68.61403125000001 69.30028125 67.9179375 70.29759375 67.0273125 71.11631249999999 65.98734375000001 71.72971874999999 64.93396875 72.351 63.83259375 72.70565625 62.65396875 72.94303124999999 60.440625000000004 73.38834374999999 58.928531250000006 73.4896875 57.50456249999999 73.20440625 56.13384375 72.92971875 54.97115625000001 72.29765624999999 54.0405 71.44434375 52.661812499999996 70.1803125 51.80315625 68.47359374999999 51.6165 66.69225 51.39778125000001 64.60153125 52.093875 62.369437500000004 53.66184375 60.724125 54.453843750000004 59.894718749999996 55.44853125 59.238749999999996 56.7765 58.72134375 58.165875 58.18265625 59.699250000000006 57.8600625 62.056593750000005 57.3853125 62.677968750000005 57.25996875 63.29925 57.134625 63.920625 57.009375000000006 64.736625 56.844 65.43796875 56.635968749999996 66.00328125 55.9453125 66.5713125 55.2493125 66.582 54.40396875 66.582 53.566593749999996V32.422125C66.582 30.803343750000003 65.85665625 30.363374999999998 64.30996875 30.65934375 63.20596875 30.87534375 39.48571875 35.6595 39.48571875 35.6595 38.1470625 35.9821875 37.67765625 36.419531250000006 37.67765625 38.080875000000006V69.0549375C37.67765625 70.27096875000001 37.613718750000004 71.37496875 37.360406250000004 72.591 37.11234375 73.77234375 36.6590625 74.88440625000001 35.96296875 75.88443749999999 35.26696875 76.88175 34.37634375 77.70046875 33.33628125 78.313875 32.283 78.93515625 31.181624999999997 79.30584375 30.003 79.54321875 27.789562500000002 79.98853125 26.2775625 80.089875 24.85359375 79.8045 23.482875 79.52981249999999 22.3201875 78.8791875 21.38953125 78.0285 20.01084375 76.76446875 19.210875 75.05775 19.0215 73.27640625000001 18.802875 71.1856875 19.4401875 68.95359375 21.010875000000002 67.30828125000001 21.802875 66.47887499999999 22.7975625 65.82290625 24.12553125 65.3055 25.51490625 64.7668125 27.04828125 64.444125 29.405625 63.969468750000004 30.027 63.844125000000005 30.648281250000004 63.718781250000006 31.26965625 63.59343750000001 32.08565625 63.42815625 32.787 63.220124999999996 33.3523125 62.52946875 33.917625 61.8388125 33.98428125 61.025437499999995 33.98428125 60.193406249999995 33.98428125 53.63325 33.98428125 24.480562499999998 33.98428125 24.480562499999998 33.98428125 24.000562499999997 34.0243125 23.67525 34.0483125 23.515218750000003 34.16296875 22.763156249999998 34.464375000000004 22.117875 35.0083125 21.661875000000002 35.4616875 21.283125000000002 36.04303125 21.019125000000003 36.78703125 20.8618125L36.79771875 20.859187499999997 65.33128124999999 15.10171875C65.57925 15.051000000000002 67.640625 14.68565625 67.87265625 14.664375 69.414 14.530968750000001 70.280625 15.544406249999998 70.280625 17.187093750000003V62.47078125H70.27799999999999Z" class="hierarchical-1:primary "/></g>
  <g id="Regular-S" transform="matrix(1,0,0,1,1401.845,612.7705000000001)">

  <path d="M95.99531250000001 26.589937499999998C95.990625 25.624593750000003 95.979375 24.65925 95.953125 23.69390625 95.896875 21.589875 95.77125 19.4698125 95.39812500000001 17.389781250000002 95.019375 15.277687499999999 94.3978125 13.312312499999999 93.42225 11.3923125 92.46225 9.50690625 91.20890625 7.784184375000001 89.71284375 6.28815 88.216875 4.792115625 86.4915 3.5387531249999995 84.6061875 2.578725 82.6888125 1.6027031250000001 80.72343749999999 0.9840187499999999 78.61406249999999 0.6026803125 76.53403125 0.22933874999999998 74.41134375 0.1040025 72.3073125 0.048001125000000006 71.34196875 0.02133384375 70.37671875 0.010666875000000001 69.411375 0.00533345625 68.264625 0 67.11796874999999 0 65.9713125 0H30.029624999999996C28.882968749999996 0 27.73621875 0 26.5895625 0.00533345625 25.624218749999997 0.010666875000000001 24.658875000000002 0.02133384375 23.69353125 0.048001125000000006 21.5895 0.10666874999999999 19.4668125 0.22933874999999998 17.386875 0.6053475 15.27478125 0.9840187499999999 13.312125000000002 1.605375 11.39475 2.5813968750000003 9.5094375 3.541415625 7.784071875 4.794778125000001 6.2880562499999995 6.2908125 4.79205 7.786846875 3.538696875 9.50953125 2.5786875 11.394937500000001 1.6026843750000002 13.314937500000001 0.9813468750000001 15.2803125 0.6026728125 17.39240625 0.2293359375 19.472437499999998 0.104000625 21.595125000000003 0.048000468750000004 23.69653125 0.0213335625 24.661875000000002 0.01066678125 25.627218750000004 0.00533338125 26.592656249999997 0 27.736687500000002 0 28.88334375 0 30.03V65.96953124999999C0 67.1161875 0 68.2629375 0.00533338125 69.40959375 0.01066678125 70.3749375 0.0213335625 71.34037500000001 0.048000468750000004 72.30571875 0.104000625 74.40975 0.2293359375 76.52981249999999 0.6026728125 78.60984375 0.9813468750000001 80.72184375 1.6026843750000002 82.68721875 2.5786875 84.60731249999999 3.538696875 86.49271875000001 4.79205 88.21537500000001 6.2880562499999995 89.7114375 7.784071875 91.2075 9.5094375 92.46084375000001 11.39475 93.42084375 13.312125000000002 94.396875 15.2775 95.015625 17.386875 95.3971875 19.4668125 95.77031249999999 21.5895 95.8959375 23.69353125 95.95125 24.658875000000002 95.9784375 25.624218749999997 95.98875 26.5895625 95.994375 27.73621875 96.001875 28.882968749999996 96 30.029624999999996 96H65.96859375C67.11534375000001 96 68.262 96 69.40865625 95.994375 70.374 95.98875 71.33934375 95.9784375 72.3046875 95.95125 74.40871874999999 95.8959375 76.53140625 95.77031249999999 78.61143750000001 95.3971875 80.72343749999999 95.0184375 82.68609375 94.3996875 84.60346875 93.42084375 86.48887500000001 92.46084375000001 88.21415625 91.2075 89.71021875 89.7114375 91.2061875 88.21537500000001 92.45953125 86.49271875000001 93.41953125 84.60731249999999 94.3959375 82.68721875 95.01656249999999 80.72184375 95.39531249999999 78.60984375 95.769375 76.52981249999999 95.8940625 74.40703124999999 95.9503125 72.30571875 95.9765625 71.34037500000001 95.9878125 70.3749375 95.99249999999999 69.40959375 96.00093749999999 68.2629375 95.998125 67.1161875 95.998125 65.96953124999999V30.03C96.00093749999999 28.88334375 96.00093749999999 27.736687500000002 95.99531250000001 26.589937499999998ZM70.27799999999999 62.47078125C70.27799999999999 63.6868125 70.2673125 64.7908125 70.011375 66.00684375 69.76331250000001 67.18828124999999 69.31003125000001 68.30024999999999 68.61403125000001 69.30028125 67.9179375 70.29759375 67.0273125 71.11631249999999 65.98734375000001 71.72971874999999 64.93396875 72.351 63.83259375 72.70565625 62.65396875 72.94303124999999 60.440625000000004 73.38834374999999 58.928531250000006 73.4896875 57.50456249999999 73.20440625 56.13384375 72.92971875 54.97115625000001 72.29765624999999 54.0405 71.44434375 52.661812499999996 70.1803125 51.80315625 68.47359374999999 51.6165 66.69225 51.39778125000001 64.60153125 52.093875 62.369437500000004 53.66184375 60.724125 54.453843750000004 59.894718749999996 55.44853125 59.238749999999996 56.7765 58.72134375 58.165875 58.18265625 59.699250000000006 57.8600625 62.056593750000005 57.3853125 62.677968750000005 57.25996875 63.29925 57.134625 63.920625 57.009375000000006 64.736625 56.844 65.43796875 56.635968749999996 66.00328125 55.9453125 66.5713125 55.2493125 66.582 54.40396875 66.582 53.566593749999996V32.422125C66.582 30.803343750000003 65.85665625 30.363374999999998 64.30996875 30.65934375 63.20596875 30.87534375 39.48571875 35.6595 39.48571875 35.6595 38.1470625 35.9821875 37.67765625 36.419531250000006 37.67765625 38.080875000000006V69.0549375C37.67765625 70.27096875000001 37.613718750000004 71.37496875 37.360406250000004 72.591 37.11234375 73.77234375 36.6590625 74.88440625000001 35.96296875 75.88443749999999 35.26696875 76.88175 34.37634375 77.70046875 33.33628125 78.313875 32.283 78.93515625 31.181624999999997 79.30584375 30.003 79.54321875 27.789562500000002 79.98853125 26.2775625 80.089875 24.85359375 79.8045 23.482875 79.52981249999999 22.3201875 78.8791875 21.38953125 78.0285 20.01084375 76.76446875 19.210875 75.05775 19.0215 73.27640625000001 18.802875 71.1856875 19.4401875 68.95359375 21.010875000000002 67.30828125000001 21.802875 66.47887499999999 22.7975625 65.82290625 24.12553125 65.3055 25.51490625 64.7668125 27.04828125 64.444125 29.405625 63.969468750000004 30.027 63.844125000000005 30.648281250000004 63.718781250000006 31.26965625 63.59343750000001 32.08565625 63.42815625 32.787 63.220124999999996 33.3523125 62.52946875 33.917625 61.8388125 33.98428125 61.025437499999995 33.98428125 60.193406249999995 33.98428125 53.63325 33.98428125 24.480562499999998 33.98428125 24.480562499999998 33.98428125 24.000562499999997 34.0243125 23.67525 34.0483125 23.515218750000003 34.16296875 22.763156249999998 34.464375000000004 22.117875 35.0083125 21.661875000000002 35.4616875 21.283125000000002 36.04303125 21.019125000000003 36.78703125 20.8618125L36.79771875 20.859187499999997 65.33128124999999 15.10171875C65.57925 15.051000000000002 67.640625 14.68565625 67.87265625 14.664375 69.414 14.530968750000001 70.280625 15.544406249999998 70.280625 17.187093750000003V62.47078125H70.27799999999999Z" class="hierarchical-1:primary "/></g>
  <g id="Ultralight-S" transform="matrix(1,0,0,1,511.711,612.7705000000001)">

  <path d="M95.99531250000001 26.589937499999998C95.990625 25.624593750000003 95.979375 24.65925 95.953125 23.69390625 95.896875 21.589875 95.77125 19.4698125 95.39812500000001 17.389781250000002 95.019375 15.277687499999999 94.3978125 13.312312499999999 93.42225 11.3923125 92.46225 9.50690625 91.20890625 7.784184375000001 89.71284375 6.28815 88.216875 4.792115625 86.4915 3.5387531249999995 84.6061875 2.578725 82.6888125 1.6027031250000001 80.72343749999999 0.9840187499999999 78.61406249999999 0.6026803125 76.53403125 0.22933874999999998 74.41134375 0.1040025 72.3073125 0.048001125000000006 71.34196875 0.02133384375 70.37671875 0.010666875000000001 69.411375 0.00533345625 68.264625 0 67.11796874999999 0 65.9713125 0H30.029624999999996C28.882968749999996 0 27.73621875 0 26.5895625 0.00533345625 25.624218749999997 0.010666875000000001 24.658875000000002 0.02133384375 23.69353125 0.048001125000000006 21.5895 0.10666874999999999 19.4668125 0.22933874999999998 17.386875 0.6053475 15.27478125 0.9840187499999999 13.312125000000002 1.605375 11.39475 2.5813968750000003 9.5094375 3.541415625 7.784071875 4.794778125000001 6.2880562499999995 6.2908125 4.79205 7.786846875 3.538696875 9.50953125 2.5786875 11.394937500000001 1.6026843750000002 13.314937500000001 0.9813468750000001 15.2803125 0.6026728125 17.39240625 0.2293359375 19.472437499999998 0.104000625 21.595125000000003 0.048000468750000004 23.69653125 0.0213335625 24.661875000000002 0.01066678125 25.627218750000004 0.00533338125 26.592656249999997 0 27.736687500000002 0 28.88334375 0 30.03V65.96953124999999C0 67.1161875 0 68.2629375 0.00533338125 69.40959375 0.01066678125 70.3749375 0.0213335625 71.34037500000001 0.048000468750000004 72.30571875 0.104000625 74.40975 0.2293359375 76.52981249999999 0.6026728125 78.60984375 0.9813468750000001 80.72184375 1.6026843750000002 82.68721875 2.5786875 84.60731249999999 3.538696875 86.49271875000001 4.79205 88.21537500000001 6.2880562499999995 89.7114375 7.784071875 91.2075 9.5094375 92.46084375000001 11.39475 93.42084375 13.312125000000002 94.396875 15.2775 95.015625 17.386875 95.3971875 19.4668125 95.77031249999999 21.5895 95.8959375 23.69353125 95.95125 24.658875000000002 95.9784375 25.624218749999997 95.98875 26.5895625 95.994375 27.73621875 96.001875 28.882968749999996 96 30.029624999999996 96H65.96859375C67.11534375000001 96 68.262 96 69.40865625 95.994375 70.374 95.98875 71.33934375 95.9784375 72.3046875 95.95125 74.40871874999999 95.8959375 76.53140625 95.77031249999999 78.61143750000001 95.3971875 80.72343749999999 95.0184375 82.68609375 94.3996875 84.60346875 93.42084375 86.48887500000001 92.46084375000001 88.21415625 91.2075 89.71021875 89.7114375 91.2061875 88.21537500000001 92.45953125 86.49271875000001 93.41953125 84.60731249999999 94.3959375 82.68721875 95.01656249999999 80.72184375 95.39531249999999 78.60984375 95.769375 76.52981249999999 95.8940625 74.40703124999999 95.9503125 72.30571875 95.9765625 71.34037500000001 95.9878125 70.3749375 95.99249999999999 69.40959375 96.00093749999999 68.2629375 95.998125 67.1161875 95.998125 65.96953124999999V30.03C96.00093749999999 28.88334375 96.00093749999999 27.736687500000002 95.99531250000001 26.589937499999998ZM70.27799999999999 62.47078125C70.27799999999999 63.6868125 70.2673125 64.7908125 70.011375 66.00684375 69.76331250000001 67.18828124999999 69.31003125000001 68.30024999999999 68.61403125000001 69.30028125 67.9179375 70.29759375 67.0273125 71.11631249999999 65.98734375000001 71.72971874999999 64.93396875 72.351 63.83259375 72.70565625 62.65396875 72.94303124999999 60.440625000000004 73.38834374999999 58.928531250000006 73.4896875 57.50456249999999 73.20440625 56.13384375 72.92971875 54.97115625000001 72.29765624999999 54.0405 71.44434375 52.661812499999996 70.1803125 51.80315625 68.47359374999999 51.6165 66.69225 51.39778125000001 64.60153125 52.093875 62.369437500000004 53.66184375 60.724125 54.453843750000004 59.894718749999996 55.44853125 59.238749999999996 56.7765 58.72134375 58.165875 58.18265625 59.699250000000006 57.8600625 62.056593750000005 57.3853125 62.677968750000005 57.25996875 63.29925 57.134625 63.920625 57.009375000000006 64.736625 56.844 65.43796875 56.635968749999996 66.00328125 55.9453125 66.5713125 55.2493125 66.582 54.40396875 66.582 53.566593749999996V32.422125C66.582 30.803343750000003 65.85665625 30.363374999999998 64.30996875 30.65934375 63.20596875 30.87534375 39.48571875 35.6595 39.48571875 35.6595 38.1470625 35.9821875 37.67765625 36.419531250000006 37.67765625 38.080875000000006V69.0549375C37.67765625 70.27096875000001 37.613718750000004 71.37496875 37.360406250000004 72.591 37.11234375 73.77234375 36.6590625 74.88440625000001 35.96296875 75.88443749999999 35.26696875 76.88175 34.37634375 77.70046875 33.33628125 78.313875 32.283 78.93515625 31.181624999999997 79.30584375 30.003 79.54321875 27.789562500000002 79.98853125 26.2775625 80.089875 24.85359375 79.8045 23.482875 79.52981249999999 22.3201875 78.8791875 21.38953125 78.0285 20.01084375 76.76446875 19.210875 75.05775 19.0215 73.27640625000001 18.802875 71.1856875 19.4401875 68.95359375 21.010875000000002 67.30828125000001 21.802875 66.47887499999999 22.7975625 65.82290625 24.12553125 65.3055 25.51490625 64.7668125 27.04828125 64.444125 29.405625 63.969468750000004 30.027 63.844125000000005 30.648281250000004 63.718781250000006 31.26965625 63.59343750000001 32.08565625 63.42815625 32.787 63.220124999999996 33.3523125 62.52946875 33.917625 61.8388125 33.98428125 61.025437499999995 33.98428125 60.193406249999995 33.98428125 53.63325 33.98428125 24.480562499999998 33.98428125 24.480562499999998 33.98428125 24.000562499999997 34.0243125 23.67525 34.0483125 23.515218750000003 34.16296875 22.763156249999998 34.464375000000004 22.117875 35.0083125 21.661875000000002 35.4616875 21.283125000000002 36.04303125 21.019125000000003 36.78703125 20.8618125L36.79771875 20.859187499999997 65.33128124999999 15.10171875C65.57925 15.051000000000002 67.640625 14.68565625 67.87265625 14.664375 69.414 14.530968750000001 70.280625 15.544406249999998 70.280625 17.187093750000003V62.47078125H70.27799999999999Z" class="hierarchical-1:primary "/></g>
 </g>
</svg>